<svg xmlns="http://www.w3.org/2000/svg" xmlns:xlink="http://www.w3.org/1999/xlink" viewBox="0 0 385.38 410.08"><defs><style>.cls-1{isolation:isolate;}.cls-11,.cls-15,.cls-2,.cls-21,.cls-3,.cls-4,.cls-5,.cls-56,.cls-57,.cls-58,.cls-59,.cls-6,.cls-60,.cls-61,.cls-62,.cls-63,.cls-64,.cls-65,.cls-66,.cls-67,.cls-68,.cls-69,.cls-7,.cls-70,.cls-71,.cls-72,.cls-73,.cls-74,.cls-75,.cls-76,.cls-77,.cls-78,.cls-79,.cls-8,.cls-80,.cls-81,.cls-82,.cls-83,.cls-84,.cls-85,.cls-86,.cls-87,.cls-88,.cls-89,.cls-9,.cls-90,.cls-91,.cls-92,.cls-93{mix-blend-mode:color-dodge;}.cls-2{fill:url(#Degradado_sin_nombre_122);}.cls-3{fill:url(#Degradado_sin_nombre_121);}.cls-4{fill:url(#Degradado_sin_nombre_6);}.cls-5{fill:url(#Degradado_sin_nombre_6-2);}.cls-6{fill:url(#Degradado_sin_nombre_6-3);}.cls-7{fill:url(#Degradado_sin_nombre_6-4);}.cls-8{fill:url(#Degradado_sin_nombre_6-5);}.cls-9{fill:url(#Degradado_sin_nombre_6-6);}.cls-10,.cls-12{mix-blend-mode:screen;}.cls-10{fill:url(#Degradado_sin_nombre_2);}.cls-11{fill:url(#Degradado_sin_nombre_2-2);}.cls-13{fill:url(#Degradado_sin_nombre_2-3);}.cls-14{fill:url(#Degradado_sin_nombre_2-4);}.cls-15{fill:url(#Degradado_sin_nombre_2-5);}.cls-16{fill:url(#Degradado_sin_nombre_5);}.cls-17{fill:url(#Degradado_sin_nombre_5-2);}.cls-18{fill:url(#Degradado_sin_nombre_4);}.cls-19{fill:url(#Degradado_sin_nombre_5-3);}.cls-20,.cls-23,.cls-25,.cls-51,.cls-52,.cls-53,.cls-54{mix-blend-mode:overlay;}.cls-20{fill:url(#Degradado_sin_nombre_120);}.cls-21{fill:url(#Degradado_sin_nombre_6-7);}.cls-22{fill:url(#Degradado_sin_nombre_118);}.cls-23{fill:url(#Degradado_sin_nombre_117);}.cls-24{fill:url(#Degradado_sin_nombre_5-4);}.cls-26{fill:url(#Degradado_sin_nombre_55);}.cls-27{fill:url(#Degradado_sin_nombre_55-2);}.cls-28{fill:url(#Degradado_sin_nombre_55-3);}.cls-29{fill:url(#Degradado_sin_nombre_55-4);}.cls-30{fill:url(#Degradado_sin_nombre_55-5);}.cls-31{fill:url(#Degradado_sin_nombre_55-6);}.cls-32{fill:url(#Degradado_sin_nombre_55-7);}.cls-33{fill:url(#Degradado_sin_nombre_55-8);}.cls-34{fill:url(#Degradado_sin_nombre_55-9);}.cls-35{fill:url(#Degradado_sin_nombre_4-2);}.cls-36{fill:url(#Degradado_sin_nombre_4-3);}.cls-37{fill:url(#Degradado_sin_nombre_4-4);}.cls-38{fill:url(#Degradado_sin_nombre_4-5);}.cls-39{fill:url(#Degradado_sin_nombre_4-6);}.cls-40{fill:url(#Degradado_sin_nombre_4-7);}.cls-41{fill:url(#Degradado_sin_nombre_4-8);}.cls-42{fill:url(#Degradado_sin_nombre_4-9);}.cls-43{fill:url(#Degradado_sin_nombre_4-10);}.cls-44{fill:url(#Degradado_sin_nombre_4-11);}.cls-45{fill:url(#Degradado_sin_nombre_4-12);}.cls-46{fill:url(#Degradado_sin_nombre_4-13);}.cls-47{fill:url(#Degradado_sin_nombre_4-14);}.cls-48{fill:url(#Degradado_sin_nombre_4-15);}.cls-49{fill:url(#Degradado_sin_nombre_4-16);}.cls-50{fill:url(#Degradado_sin_nombre_4-17);}.cls-51{fill:url(#Degradado_sin_nombre_55-10);}.cls-52{fill:url(#Degradado_sin_nombre_55-11);}.cls-53{fill:url(#Degradado_sin_nombre_55-12);}.cls-54{fill:url(#Degradado_sin_nombre_55-13);}.cls-55{fill:url(#Degradado_sin_nombre_4-18);}.cls-57{fill:url(#Degradado_sin_nombre_3);}.cls-58{fill:url(#Degradado_sin_nombre_3-2);}.cls-59{fill:url(#Degradado_sin_nombre_3-3);}.cls-60{fill:url(#Degradado_sin_nombre_3-4);}.cls-61{fill:url(#Degradado_sin_nombre_3-5);}.cls-62{fill:url(#Degradado_sin_nombre_3-6);}.cls-63{fill:url(#Degradado_sin_nombre_3-7);}.cls-64{fill:url(#Degradado_sin_nombre_3-8);}.cls-65{fill:url(#Degradado_sin_nombre_3-9);}.cls-66{fill:url(#Degradado_sin_nombre_3-10);}.cls-67{fill:url(#Degradado_sin_nombre_3-11);}.cls-68{fill:url(#Degradado_sin_nombre_3-12);}.cls-69{fill:url(#Degradado_sin_nombre_3-13);}.cls-70{fill:url(#Degradado_sin_nombre_3-14);}.cls-71{fill:url(#Degradado_sin_nombre_3-15);}.cls-72{fill:url(#Degradado_sin_nombre_3-16);}.cls-73{fill:url(#Degradado_sin_nombre_3-17);}.cls-74{fill:url(#Degradado_sin_nombre_3-18);}.cls-75{fill:url(#Degradado_sin_nombre_3-19);}.cls-76{fill:url(#Degradado_sin_nombre_3-20);}.cls-77{fill:url(#Degradado_sin_nombre_3-21);}.cls-78{fill:url(#Degradado_sin_nombre_3-22);}.cls-79{fill:url(#Degradado_sin_nombre_3-23);}.cls-80{fill:url(#Degradado_sin_nombre_3-24);}.cls-81{fill:url(#Degradado_sin_nombre_3-25);}.cls-82{fill:url(#Degradado_sin_nombre_3-26);}.cls-83{fill:url(#Degradado_sin_nombre_3-27);}.cls-84{fill:url(#Degradado_sin_nombre_3-28);}.cls-85{fill:url(#Degradado_sin_nombre_3-29);}.cls-86{fill:url(#Degradado_sin_nombre_3-30);}.cls-87{fill:url(#Degradado_sin_nombre_3-31);}.cls-88{fill:url(#Degradado_sin_nombre_3-32);}.cls-89{fill:url(#Degradado_sin_nombre_3-33);}.cls-90{fill:url(#Degradado_sin_nombre_3-34);}.cls-91{fill:url(#Degradado_sin_nombre_3-35);}.cls-92{fill:url(#Degradado_sin_nombre_3-36);}.cls-93{fill:url(#Degradado_sin_nombre_2-6);}</style><radialGradient id="Degradado_sin_nombre_122" cx="-164.96" cy="652.02" r="145.25" gradientTransform="matrix(0.87, -0.5, 0.86, 0.5, -210.97, -99.19)" gradientUnits="userSpaceOnUse"><stop offset="0.02" stop-color="#c25a8b"/><stop offset="0.96" stop-opacity="0"/></radialGradient><radialGradient id="Degradado_sin_nombre_121" cx="169.92" cy="232.9" r="139.28" gradientTransform="translate(203.09 -54.15) rotate(45) scale(1 0.99)" gradientUnits="userSpaceOnUse"><stop offset="0.02" stop-color="#fca999"/><stop offset="0.96" stop-opacity="0"/></radialGradient><radialGradient id="Degradado_sin_nombre_6" cx="91.31" cy="98.32" r="106.9" gradientTransform="translate(0 0.5) scale(1 0.99)" gradientUnits="userSpaceOnUse"><stop offset="0" stop-color="#d3ffe6"/><stop offset="0.85" stop-opacity="0"/></radialGradient><radialGradient id="Degradado_sin_nombre_6-2" cx="70.92" cy="114.26" r="106.9" gradientTransform="translate(0 0.58) scale(1 0.99)" xlink:href="#Degradado_sin_nombre_6"/><radialGradient id="Degradado_sin_nombre_6-3" cx="82.13" cy="120.99" r="106.9" gradientTransform="translate(0 0.62) scale(1 0.99)" xlink:href="#Degradado_sin_nombre_6"/><radialGradient id="Degradado_sin_nombre_6-4" cx="269.8" cy="61.58" r="106.9" gradientTransform="translate(0 0.31) scale(1 0.99)" xlink:href="#Degradado_sin_nombre_6"/><radialGradient id="Degradado_sin_nombre_6-5" cx="249.41" cy="77.53" r="106.9" gradientTransform="translate(0 0.4) scale(1 0.99)" xlink:href="#Degradado_sin_nombre_6"/><radialGradient id="Degradado_sin_nombre_6-6" cx="260.62" cy="84.26" r="106.9" gradientTransform="translate(0 0.43) scale(1 0.99)" xlink:href="#Degradado_sin_nombre_6"/><linearGradient id="Degradado_sin_nombre_2" x1="357.76" y1="275.71" x2="-304.53" y2="323.07" gradientUnits="userSpaceOnUse"><stop offset="0" stop-color="#55d1ff"/><stop offset="0.11" stop-color="#4bb8df" stop-opacity="0.88"/><stop offset="0.56" stop-color="#235868" stop-opacity="0.41"/><stop offset="0.86" stop-color="#0b1c1d" stop-opacity="0.12"/><stop offset="1" stop-color="#010400" stop-opacity="0"/></linearGradient><linearGradient id="Degradado_sin_nombre_2-2" x1="287.6" y1="355.79" x2="0.54" y2="195.68" xlink:href="#Degradado_sin_nombre_2"/><linearGradient id="Degradado_sin_nombre_2-3" x1="260.05" y1="223.97" x2="354.82" y2="170.83" xlink:href="#Degradado_sin_nombre_2"/><linearGradient id="Degradado_sin_nombre_2-4" x1="109.96" y1="314.5" x2="-4.29" y2="381.81" xlink:href="#Degradado_sin_nombre_2"/><linearGradient id="Degradado_sin_nombre_2-5" x1="335.08" y1="299.81" x2="110.78" y2="424.59" xlink:href="#Degradado_sin_nombre_2"/><linearGradient id="Degradado_sin_nombre_5" x1="258.57" y1="257.25" x2="88.39" y2="248.79" gradientUnits="userSpaceOnUse"><stop offset="0" stop-color="#e8e9ff"/><stop offset="1" stop-color="#c0c0f6"/></linearGradient><linearGradient id="Degradado_sin_nombre_5-2" x1="270.97" y1="239.32" x2="212.88" y2="338.62" xlink:href="#Degradado_sin_nombre_5"/><linearGradient id="Degradado_sin_nombre_4" x1="166.87" y1="322.11" x2="55.24" y2="274.09" gradientUnits="userSpaceOnUse"><stop offset="0" stop-color="#b6b9fe"/><stop offset="1" stop-color="#5861d6"/></linearGradient><linearGradient id="Degradado_sin_nombre_5-3" x1="299.67" y1="284.6" x2="165.12" y2="317.37" xlink:href="#Degradado_sin_nombre_5"/><linearGradient id="Degradado_sin_nombre_120" x1="266.44" y1="257.42" x2="89.78" y2="334.42" gradientUnits="userSpaceOnUse"><stop offset="0" stop-color="#4e0f82"/><stop offset="1" stop-color="#fff" stop-opacity="0"/></linearGradient><radialGradient id="Degradado_sin_nombre_6-7" cx="171.47" cy="255.41" r="274.73" gradientTransform="matrix(1, 0, 0, 1, 0, 0)" xlink:href="#Degradado_sin_nombre_6"/><linearGradient id="Degradado_sin_nombre_118" x1="266.77" y1="259.34" x2="19.59" y2="254.94" gradientUnits="userSpaceOnUse"><stop offset="0" stop-color="#3a55ca"/><stop offset="1" stop-color="#2d2463"/></linearGradient><linearGradient id="Degradado_sin_nombre_117" x1="242.78" y1="247.29" x2="69.97" y2="271.89" gradientUnits="userSpaceOnUse"><stop offset="0" stop-color="#e8e9ff"/><stop offset="1" stop-color="#501275"/></linearGradient><linearGradient id="Degradado_sin_nombre_5-4" x1="222.34" y1="254.65" x2="85.61" y2="247.68" xlink:href="#Degradado_sin_nombre_5"/><linearGradient id="Degradado_sin_nombre_55" x1="211" y1="264.7" x2="129.64" y2="239.58" gradientUnits="userSpaceOnUse"><stop offset="0" stop-color="#fff"/><stop offset="1" stop-color="#fff" stop-opacity="0"/></linearGradient><linearGradient id="Degradado_sin_nombre_55-2" x1="212.94" y1="258.43" x2="131.57" y2="233.31" xlink:href="#Degradado_sin_nombre_55"/><linearGradient id="Degradado_sin_nombre_55-3" x1="205.72" y1="281.81" x2="124.35" y2="256.69" xlink:href="#Degradado_sin_nombre_55"/><linearGradient id="Degradado_sin_nombre_55-4" x1="216.24" y1="247.74" x2="134.87" y2="222.62" xlink:href="#Degradado_sin_nombre_55"/><linearGradient id="Degradado_sin_nombre_55-5" x1="212.31" y1="260.47" x2="130.94" y2="235.35" xlink:href="#Degradado_sin_nombre_55"/><linearGradient id="Degradado_sin_nombre_55-6" x1="210.05" y1="267.79" x2="128.68" y2="242.67" xlink:href="#Degradado_sin_nombre_55"/><linearGradient id="Degradado_sin_nombre_55-7" x1="211.08" y1="264.43" x2="129.72" y2="239.31" xlink:href="#Degradado_sin_nombre_55"/><linearGradient id="Degradado_sin_nombre_55-8" x1="215.57" y1="249.89" x2="134.21" y2="224.77" xlink:href="#Degradado_sin_nombre_55"/><linearGradient id="Degradado_sin_nombre_55-9" x1="208.88" y1="271.56" x2="127.52" y2="246.44" xlink:href="#Degradado_sin_nombre_55"/><linearGradient id="Degradado_sin_nombre_4-2" x1="156.78" y1="239.27" x2="173.5" y2="246.1" xlink:href="#Degradado_sin_nombre_4"/><linearGradient id="Degradado_sin_nombre_4-3" x1="187.9" y1="238.74" x2="177.29" y2="243.66" xlink:href="#Degradado_sin_nombre_4"/><linearGradient id="Degradado_sin_nombre_4-4" x1="175.59" y1="250.69" x2="194.83" y2="255.98" xlink:href="#Degradado_sin_nombre_4"/><linearGradient id="Degradado_sin_nombre_4-5" x1="139.79" y1="234.76" x2="149.74" y2="234.76" xlink:href="#Degradado_sin_nombre_4"/><linearGradient id="Degradado_sin_nombre_4-6" x1="128.43" y1="242.33" x2="140.98" y2="242.33" xlink:href="#Degradado_sin_nombre_4"/><linearGradient id="Degradado_sin_nombre_4-7" x1="203.18" y1="274.89" x2="184.04" y2="283.09" xlink:href="#Degradado_sin_nombre_4"/><linearGradient id="Degradado_sin_nombre_4-8" x1="210.22" y1="270.57" x2="191.08" y2="278.77" xlink:href="#Degradado_sin_nombre_4"/><linearGradient id="Degradado_sin_nombre_4-9" x1="201.78" y1="264.16" x2="191.61" y2="270.63" xlink:href="#Degradado_sin_nombre_4"/><linearGradient id="Degradado_sin_nombre_4-10" x1="177.81" y1="282.05" x2="194.83" y2="271.46" xlink:href="#Degradado_sin_nombre_4"/><linearGradient id="Degradado_sin_nombre_4-11" x1="146.77" y1="249.84" x2="123.95" y2="260.08" xlink:href="#Degradado_sin_nombre_4"/><linearGradient id="Degradado_sin_nombre_4-12" x1="181.91" y1="268.31" x2="199.31" y2="280.49" xlink:href="#Degradado_sin_nombre_4"/><linearGradient id="Degradado_sin_nombre_4-13" x1="187.22" y1="260.72" x2="204.63" y2="272.9" xlink:href="#Degradado_sin_nombre_4"/><linearGradient id="Degradado_sin_nombre_4-14" x1="171.45" y1="272.56" x2="178.64" y2="287.26" xlink:href="#Degradado_sin_nombre_4"/><linearGradient id="Degradado_sin_nombre_4-15" x1="127.83" y1="246.75" x2="176.74" y2="276.18" xlink:href="#Degradado_sin_nombre_4"/><linearGradient id="Degradado_sin_nombre_4-16" x1="118.23" y1="238.9" x2="132.13" y2="256.31" xlink:href="#Degradado_sin_nombre_4"/><linearGradient id="Degradado_sin_nombre_4-17" x1="211.01" y1="257.67" x2="189.14" y2="280.29" xlink:href="#Degradado_sin_nombre_4"/><linearGradient id="Degradado_sin_nombre_55-10" x1="170.65" y1="223.79" x2="170.65" y2="278.82" xlink:href="#Degradado_sin_nombre_55"/><linearGradient id="Degradado_sin_nombre_55-11" x1="290.76" y1="242.06" x2="81.41" y2="188.34" xlink:href="#Degradado_sin_nombre_55"/><linearGradient id="Degradado_sin_nombre_55-12" x1="290.76" y1="196.86" x2="81.41" y2="143.14" xlink:href="#Degradado_sin_nombre_55"/><linearGradient id="Degradado_sin_nombre_55-13" x1="290.76" y1="150.24" x2="81.41" y2="96.52" xlink:href="#Degradado_sin_nombre_55"/><linearGradient id="Degradado_sin_nombre_4-18" x1="83.76" y1="241.83" x2="241.1" y2="233.01" xlink:href="#Degradado_sin_nombre_4"/><radialGradient id="Degradado_sin_nombre_3" cx="159.35" cy="65.03" r="2.14" gradientTransform="matrix(1, 0, 0, 1, 0, 0)" xlink:href="#Degradado_sin_nombre_6"/><radialGradient id="Degradado_sin_nombre_3-2" cx="194.28" cy="103.75" r="2.2" gradientTransform="matrix(1, 0, 0, 1, 0, 0)" xlink:href="#Degradado_sin_nombre_6"/><radialGradient id="Degradado_sin_nombre_3-3" cx="156.33" cy="76.8" r="2.25" gradientTransform="matrix(1, 0, 0, 1, 0, 0)" xlink:href="#Degradado_sin_nombre_6"/><radialGradient id="Degradado_sin_nombre_3-4" cx="171.73" cy="99.31" r="2.31" gradientTransform="matrix(1, 0, 0, 1, 0, 0)" xlink:href="#Degradado_sin_nombre_6"/><radialGradient id="Degradado_sin_nombre_3-5" cx="169.98" cy="122.29" r="2.18" gradientTransform="matrix(1, 0, 0, 1, 0, 0)" xlink:href="#Degradado_sin_nombre_6"/><radialGradient id="Degradado_sin_nombre_3-6" cx="138.4" cy="193.74" r="2.25" gradientTransform="matrix(1, 0, 0, 1, 0, 0)" xlink:href="#Degradado_sin_nombre_6"/><radialGradient id="Degradado_sin_nombre_3-7" cx="126.49" cy="219.3" r="2.22" gradientTransform="matrix(1, 0, 0, 1, 0, 0)" xlink:href="#Degradado_sin_nombre_6"/><radialGradient id="Degradado_sin_nombre_3-8" cx="228.57" cy="212.78" r="2.31" gradientTransform="matrix(1, 0, 0, 1, 0, 0)" xlink:href="#Degradado_sin_nombre_6"/><radialGradient id="Degradado_sin_nombre_3-9" cx="185.19" cy="157.66" r="2.19" gradientTransform="matrix(1, 0, 0, 1, 0, 0)" xlink:href="#Degradado_sin_nombre_6"/><radialGradient id="Degradado_sin_nombre_3-10" cx="144.76" cy="72.77" r="2.3" gradientTransform="matrix(1, 0, 0, 1, 0, 0)" xlink:href="#Degradado_sin_nombre_6"/><radialGradient id="Degradado_sin_nombre_3-11" cx="122.12" cy="61.77" r="2.18" gradientTransform="matrix(1, 0, 0, 1, 0, 0)" xlink:href="#Degradado_sin_nombre_6"/><radialGradient id="Degradado_sin_nombre_3-12" cx="101.92" cy="40.15" r="2.17" gradientTransform="matrix(1, 0, 0, 1, 0, 0)" xlink:href="#Degradado_sin_nombre_6"/><radialGradient id="Degradado_sin_nombre_3-13" cx="138.27" cy="49.14" r="2.26" gradientTransform="matrix(1, 0, 0, 1, 0, 0)" xlink:href="#Degradado_sin_nombre_6"/><radialGradient id="Degradado_sin_nombre_3-14" cx="200.16" cy="31.03" r="2.12" gradientTransform="matrix(1, 0, 0, 1, 0, 0)" xlink:href="#Degradado_sin_nombre_6"/><radialGradient id="Degradado_sin_nombre_3-15" cx="210.59" cy="49.97" r="2.13" gradientTransform="matrix(1, 0, 0, 1, 0, 0)" xlink:href="#Degradado_sin_nombre_6"/><radialGradient id="Degradado_sin_nombre_3-16" cx="209.2" cy="59.39" r="2.19" gradientTransform="matrix(1, 0, 0, 1, 0, 0)" xlink:href="#Degradado_sin_nombre_6"/><radialGradient id="Degradado_sin_nombre_3-17" cx="198.64" cy="79.14" r="2.22" gradientTransform="matrix(1, 0, 0, 1, 0, 0)" xlink:href="#Degradado_sin_nombre_6"/><radialGradient id="Degradado_sin_nombre_3-18" cx="181.03" cy="134.91" r="2.11" gradientTransform="matrix(1, 0, 0, 1, 0, 0)" xlink:href="#Degradado_sin_nombre_6"/><radialGradient id="Degradado_sin_nombre_3-19" cx="153.04" cy="86.79" r="2.18" gradientTransform="matrix(1, 0, 0, 1, 0, 0)" xlink:href="#Degradado_sin_nombre_6"/><radialGradient id="Degradado_sin_nombre_3-20" cx="118.83" cy="115.97" r="2.12" gradientTransform="matrix(1, 0, 0, 1, 0, 0)" xlink:href="#Degradado_sin_nombre_6"/><radialGradient id="Degradado_sin_nombre_3-21" cx="113.62" cy="88.09" r="2.19" gradientTransform="matrix(1, 0, 0, 1, 0, 0)" xlink:href="#Degradado_sin_nombre_6"/><radialGradient id="Degradado_sin_nombre_3-22" cx="137.55" cy="147.61" r="2.2" gradientTransform="matrix(1, 0, 0, 1, 0, 0)" xlink:href="#Degradado_sin_nombre_6"/><radialGradient id="Degradado_sin_nombre_3-23" cx="214.7" cy="157.32" r="2.28" gradientTransform="matrix(1, 0, 0, 1, 0, 0)" xlink:href="#Degradado_sin_nombre_6"/><radialGradient id="Degradado_sin_nombre_3-24" cx="221.92" cy="197.71" r="2.19" gradientTransform="matrix(1, 0, 0, 1, 0, 0)" xlink:href="#Degradado_sin_nombre_6"/><radialGradient id="Degradado_sin_nombre_3-25" cx="153.96" cy="157.93" r="2.24" gradientTransform="matrix(1, 0, 0, 1, 0, 0)" xlink:href="#Degradado_sin_nombre_6"/><radialGradient id="Degradado_sin_nombre_3-26" cx="230.09" cy="226.33" r="2.3" gradientTransform="matrix(1, 0, 0, 1, 0, 0)" xlink:href="#Degradado_sin_nombre_6"/><radialGradient id="Degradado_sin_nombre_3-27" cx="122.12" cy="159.6" r="2.25" gradientTransform="matrix(1, 0, 0, 1, 0, 0)" xlink:href="#Degradado_sin_nombre_6"/><radialGradient id="Degradado_sin_nombre_3-28" cx="164.99" cy="191.49" r="2.3" gradientTransform="matrix(1, 0, 0, 1, 0, 0)" xlink:href="#Degradado_sin_nombre_6"/><radialGradient id="Degradado_sin_nombre_3-29" cx="118.44" cy="197.68" r="2.31" gradientTransform="matrix(1, 0, 0, 1, 0, 0)" xlink:href="#Degradado_sin_nombre_6"/><radialGradient id="Degradado_sin_nombre_3-30" cx="186.5" cy="196.14" r="2.13" gradientTransform="matrix(1, 0, 0, 1, 0, 0)" xlink:href="#Degradado_sin_nombre_6"/><radialGradient id="Degradado_sin_nombre_3-31" cx="172.9" cy="155.09" r="2.17" gradientTransform="matrix(1, 0, 0, 1, 0, 0)" xlink:href="#Degradado_sin_nombre_6"/><radialGradient id="Degradado_sin_nombre_3-32" cx="221.69" cy="140.94" r="2.26" gradientTransform="matrix(1, 0, 0, 1, 0, 0)" xlink:href="#Degradado_sin_nombre_6"/><radialGradient id="Degradado_sin_nombre_3-33" cx="201.93" cy="102.54" r="2.3" gradientTransform="matrix(1, 0, 0, 1, 0, 0)" xlink:href="#Degradado_sin_nombre_6"/><radialGradient id="Degradado_sin_nombre_3-34" cx="168.75" cy="51.12" r="2.2" gradientTransform="matrix(1, 0, 0, 1, 0, 0)" xlink:href="#Degradado_sin_nombre_6"/><radialGradient id="Degradado_sin_nombre_3-35" cx="170.18" cy="47.35" r="2.18" gradientTransform="matrix(1, 0, 0, 1, 0, 0)" xlink:href="#Degradado_sin_nombre_6"/><radialGradient id="Degradado_sin_nombre_3-36" cx="193.24" cy="87.29" r="2.17" gradientTransform="matrix(1, 0, 0, 1, 0, 0)" xlink:href="#Degradado_sin_nombre_6"/><linearGradient id="Degradado_sin_nombre_2-6" x1="157.18" y1="71.64" x2="173.36" y2="220.4" xlink:href="#Degradado_sin_nombre_2"/></defs><g class="cls-1"><g id="Layer_2" data-name="Layer 2"><g id="OBJECTS"><ellipse class="cls-2" cx="207.95" cy="307.64" rx="177.43" ry="102.44"/><circle class="cls-3" cx="168.34" cy="218.68" r="108.81" transform="translate(-105.32 183.09) rotate(-45)"/><path class="cls-4" d="M90.2,215.42h0a2.05,2.05,0,0,1-2-2v-107a2.05,2.05,0,0,1,2-2h0a2,2,0,0,1,2,2v107A2,2,0,0,1,90.2,215.42Z"/><path class="cls-5" d="M69.8,231.37h0a2,2,0,0,1-2-2v-107a2.05,2.05,0,0,1,2-2.05h0a2.05,2.05,0,0,1,2,2.05v107A2,2,0,0,1,69.8,231.37Z"/><path class="cls-6" d="M81,238.1h0a2.05,2.05,0,0,1-2-2V129a2,2,0,0,1,2-2h0a2,2,0,0,1,2,2v107A2.05,2.05,0,0,1,81,238.1Z"/><path class="cls-7" d="M268.68,178.69h0a2,2,0,0,1-2-2v-107a2.05,2.05,0,0,1,2-2h0a2.05,2.05,0,0,1,2.05,2v107A2.05,2.05,0,0,1,268.68,178.69Z"/><path class="cls-8" d="M248.29,194.64h0a2,2,0,0,1-2-2v-107a2,2,0,0,1,2-2h0a2,2,0,0,1,2,2V192.6A2,2,0,0,1,248.29,194.64Z"/><path class="cls-9" d="M259.5,201.37h0a2.05,2.05,0,0,1-2-2.05v-107a2,2,0,0,1,2-2h0a2,2,0,0,1,2,2v107A2.05,2.05,0,0,1,259.5,201.37Z"/><path class="cls-10" d="M158.65,383.35a11,11,0,0,1-5.5-1.47L18.47,304.12a11,11,0,0,1,0-19.05L172.65,196.6a11,11,0,0,1,11,0l133.46,77.84a11,11,0,0,1,0,19L164.15,381.88A11,11,0,0,1,158.65,383.35Zm19.48-187.24a10,10,0,0,0-5,1.33L19,285.91a10,10,0,0,0,0,17.38l134.69,77.76a10.06,10.06,0,0,0,10,0L316.6,292.66a10,10,0,0,0,0-17.34L183.18,197.47A10,10,0,0,0,178.13,196.11Z"/><path class="cls-11" d="M164.47,368.17l130.89-75.65a9,9,0,0,0,0-15.55L181.17,210.34a9,9,0,0,0-9,0L40.21,286a9,9,0,0,0,0,15.59l115.28,66.56A9,9,0,0,0,164.47,368.17Z"/><g class="cls-12"><path class="cls-13" d="M298.6,210.63l24.92-14.39a2,2,0,0,0,1.82,0,.57.57,0,0,0,0-1.08,2.1,2.1,0,0,0-1.86,0c-.35.2-.46.48-.34.74l-25.05,14.46Zm-39.27,11.24a2.09,2.09,0,0,0-1.58.12.57.57,0,0,0,0,1.08,2.06,2.06,0,0,0,1.87,0c.42-.25.49-.62.21-.91l73.36-42.35a2.07,2.07,0,0,0,1.57-.13.56.56,0,0,0,0-1.07,2,2,0,0,0-1.86,0c-.43.24-.5.61-.22.91Zm73.89-35.94-40.93,23.62a2.07,2.07,0,0,0-1.57.13.57.57,0,0,0,0,1.08,2.12,2.12,0,0,0,1.87,0c.42-.25.49-.62.21-.91l39.7-22.93v7.69L307.75,208.9a2,2,0,0,0-1.57.12.57.57,0,0,0,0,1.08,2.1,2.1,0,0,0,1.86,0c.43-.25.5-.62.22-.91l25-14.41Zm-55,20.58,44.7-25.81a2.15,2.15,0,0,0,1.58-.12.57.57,0,0,0,0-1.08,2.06,2.06,0,0,0-1.87,0c-.43.25-.5.62-.21.91l-43.49,25.1v-7.27l33.57-19.38a2.1,2.1,0,0,0,1.58-.13.57.57,0,0,0,0-1.07,2.06,2.06,0,0,0-1.87,0c-.43.24-.49.62-.21.91l-33.78,19.5Zm6-8,.51.29,45.12-26.05a2.14,2.14,0,0,0,1.58-.12.57.57,0,0,0,0-1.08,2.06,2.06,0,0,0-1.87,0c-.43.25-.49.62-.21.91ZM283,213.78h25.38l20.67-11.94a2.07,2.07,0,0,0,1.57-.12.57.57,0,0,0,0-1.08,2,2,0,0,0-1.86,0c-.43.25-.5.62-.22.91l-20.46,11.81H282.71l-29.17,16.85a2.05,2.05,0,0,0-1.58.12.57.57,0,0,0,0,1.08,2.06,2.06,0,0,0,1.87,0c.43-.25.49-.62.21-.91Zm69.12-20.24a2.09,2.09,0,0,0-1.87,0c-.43.25-.49.62-.21.91l-39.72,22.93h-24L268.9,227.44a2.11,2.11,0,0,0-1.41.17.57.57,0,0,0,0,1.08,2.06,2.06,0,0,0,1.87,0c.47-.27.5-.7.11-1l17.15-9.9h24l39.92-23a2,2,0,0,0,1.58-.12A.57.57,0,0,0,352.13,193.54Zm-98.45,26.84a2,2,0,0,0,1.86,0c.43-.25.5-.62.22-.91l16.56-9.56V196.85l40.47-23.37a2,2,0,0,0,1.58-.12.57.57,0,0,0,0-1.08,2.12,2.12,0,0,0-1.87,0c-.43.25-.49.62-.21.91L271.6,196.68v13.06l-16.35,9.44a2.07,2.07,0,0,0-1.57.12A.57.57,0,0,0,253.68,220.38Z"/></g><g class="cls-12"><path class="cls-14" d="M100.55,319.43a2.06,2.06,0,0,0-1.87,0c-.42.24-.49.62-.21.91l-29,16.72H44.13L23.46,349a2.09,2.09,0,0,0-1.58.13.57.57,0,0,0,0,1.07,2.06,2.06,0,0,0,1.87,0c.42-.24.49-.62.21-.91l20.46-11.81H69.8L99,320.63a2.07,2.07,0,0,0,1.57-.13A.56.56,0,0,0,100.55,319.43ZM53.92,340.2,29,354.59a2.08,2.08,0,0,0-1.82,0,.57.57,0,0,0,0,1.08,2.06,2.06,0,0,0,1.87,0c.34-.2.45-.48.33-.73l25.05-14.47Zm-11.74-6.75h24l17.43-10.06a2,2,0,0,0,1.4-.17.57.57,0,0,0,0-1.08,2,2,0,0,0-1.86,0c-.48.28-.51.7-.12,1L65.9,333h-24L2,356.09a2.12,2.12,0,0,0-1.57.12.57.57,0,0,0,0,1.08,2,2,0,0,0,1.86,0c.43-.25.5-.62.22-.91Zm51-4.48a2.07,2.07,0,0,0,1.57-.13.56.56,0,0,0,0-1.07,2,2,0,0,0-1.86,0c-.43.24-.5.61-.22.9L19.33,371a2.09,2.09,0,0,0-1.58.12.57.57,0,0,0,0,1.08,2.06,2.06,0,0,0,1.87,0c.43-.25.49-.62.21-.91ZM19.3,364.91l40.92-23.63a2.12,2.12,0,0,0,1.57-.12.57.57,0,0,0,0-1.08,2,2,0,0,0-1.86,0c-.43.25-.5.62-.21.91L20,363.91v-7.68l24.75-14.29a2.09,2.09,0,0,0,1.58-.13.57.57,0,0,0,0-1.07,2.06,2.06,0,0,0-1.87,0c-.43.24-.49.62-.21.91l-25,14.41Zm79.54-34.45a2.06,2.06,0,0,0-1.87,0c-.43.24-.5.61-.21.9L80.2,340.92V354L39.72,377.35a2.12,2.12,0,0,0-1.57.12.57.57,0,0,0,0,1.08,2,2,0,0,0,1.86,0c.43-.25.5-.62.22-.91l40.68-23.49V341.09l16.35-9.43a2.1,2.1,0,0,0,1.58-.13A.57.57,0,0,0,98.84,330.46ZM68.27,352.32l-.51-.29L22.64,378.08a2.07,2.07,0,0,0-1.57.13.56.56,0,0,0,0,1.07,2,2,0,0,0,1.86,0c.43-.24.5-.62.22-.91Zm6-8L29.6,370.13a2.07,2.07,0,0,0-1.57.13.57.57,0,0,0,0,1.08,2.1,2.1,0,0,0,1.86,0c.43-.25.5-.62.22-.91l43.48-25.11v7.27L40,372a2,2,0,0,0-1.57.12.57.57,0,0,0,0,1.08,2.1,2.1,0,0,0,1.86,0c.43-.25.5-.62.22-.91l33.78-19.5Z"/></g><path class="cls-15" d="M255.72,344.06a7.82,7.82,0,0,0-7.08,0c-2,1.13-2,3,0,4.09a7.82,7.82,0,0,0,7.08,0C257.67,347,257.67,345.19,255.72,344.06Zm-16.28,9.4a7.82,7.82,0,0,0-7.08,0c-2,1.13-2,3,0,4.09a7.88,7.88,0,0,0,7.08,0C241.39,356.42,241.39,354.59,239.44,353.46Zm-16.28,9.4a7.82,7.82,0,0,0-7.08,0c-2,1.12-2,3,0,4.08a7.82,7.82,0,0,0,7.08,0C225.11,365.82,225.11,364,223.16,362.86Zm-16.28,9.39a7.88,7.88,0,0,0-7.08,0c-2,1.13-2,3,0,4.09a7.82,7.82,0,0,0,7.08,0C208.84,375.21,208.84,373.38,206.88,372.25Zm114-65.79a7.84,7.84,0,0,0-7.09,0c-1.95,1.13-1.95,3,0,4.09a7.84,7.84,0,0,0,7.09,0C322.79,309.42,322.79,307.59,320.84,306.46Zm-16.28,9.4a7.82,7.82,0,0,0-7.08,0c-2,1.13-2,3,0,4.09a7.82,7.82,0,0,0,7.08,0C306.51,318.82,306.51,317,304.56,315.86Zm-16.28,9.4a7.82,7.82,0,0,0-7.08,0c-2,1.13-2,3,0,4.09a7.82,7.82,0,0,0,7.08,0C290.23,328.22,290.23,326.39,288.28,325.26ZM272,334.66a7.82,7.82,0,0,0-7.08,0c-2,1.13-2,3,0,4.09a7.82,7.82,0,0,0,7.08,0C274,337.62,274,335.79,272,334.66Z"/><polygon class="cls-16" points="260.42 238.9 194.38 200.78 104.17 214.73 104.17 214.73 80 266.81 80 266.81 146.04 304.94 236.25 290.99 236.25 290.99 260.42 238.9"/><polygon class="cls-17" points="260.42 238.9 236.25 290.99 236.25 317.12 260.42 265.04 260.42 238.9"/><polygon class="cls-18" points="80 266.81 80 292.95 146.04 331.07 146.04 304.94 80 266.81"/><polygon class="cls-19" points="146.04 304.94 236.25 290.99 236.25 317.12 146.04 331.07 146.04 304.94"/><polygon class="cls-20" points="259.85 240.13 259.85 263.9 235.68 315.99 145.47 329.94 80 292.14 80 292.95 146.04 331.07 236.25 317.12 260.42 265.04 260.42 238.9 259.85 240.13"/><polygon class="cls-21" points="94.65 262.22 148.25 293.17 228.52 280.75 245.77 243.58 270.57 41.1 199.38 0 92.76 16.49 69.85 65.87 94.65 262.22"/><polygon class="cls-22" points="98.12 264.18 111.9 234.48 192.17 222.07 242.3 251.01 228.53 280.73 148.26 293.17 98.12 264.18"/><path class="cls-23" d="M198.93,226l-83.5,48.21,1.26.73,83.5-48.21Zm-2.75-1.59-83.5,48.21,1.26.73,83.5-48.21Zm-2.76-1.59L109.92,271l1.26.73,83.5-48.21Zm-5.34-.09-80.91,46.71,1.26.73,83.09-48Zm-7.53,1.16-76.14,44,1.26.73L184,223.36Zm29.4,8.47-83.5,48.21,1.26.73,83.5-48.21Zm-2.76-1.59L123.69,279l1.26.73,83.5-48.21Zm-2.75-1.59-83.5,48.21,1.26.73,83.5-48.21Zm-2.75-1.59L118.18,275.8l1.26.73L203,228.32ZM127.88,232l-20.27,11.7-.92,2,24.63-14.22Zm15.05-2.33-39.35,22.72-.92,2,43.71-25.24Zm-22.57,3.49-10.73,6.2-.92,2,15.09-8.71Zm-7.53,1.17-1.19.68-.92,2,5.56-3.21Zm45.15-7L99.55,261.12l-.92,2,62.79-36.26Zm7.52-1.16L98.91,264.67l1.26.73L169,225.69Zm7.53-1.17-71.37,41.21,1.26.73,73.55-42.47Zm-22.57,3.5-48.9,28.22-.92,2L153.9,228Zm-15.05,2.32L105.6,248.09l-.93,2,34.18-19.73Zm77.12,52.34,20.27-11.7.92-2-24.63,14.22Zm7.52-1.16,10.73-6.2.92-2-15.09,8.72Zm7.53-1.17,1.18-.68.93-2-5.56,3.2Zm12.66-31-68.78,39.71,3.45-.53,66.59-38.45ZM179,288.4l3.44-.53,58.43-33.74.92-2Zm11-1.7,48.89-28.23.93-2-53.26,30.74ZM212.7,234l-83.5,48.21,1.26.73L214,234.68Zm-15.22,51.59,39.35-22.72.92-2L194,286.07Zm7.52-1.17,29.81-17.21.92-2-34.17,19.73Zm32.49-36.11-73.55,42.47,3.44-.54L238.75,249Zm-19.28-11.13-83.5,48.21,1.26.73,83.5-48.21Zm5.51,3.18-83.5,48.21,1.26.73L225,241ZM221,238.72l-83.5,48.21,1.26.73,83.5-48.21Zm-5.5-3.18L132,283.75l1.26.73,83.5-48.21ZM232,245.08l-83.09,48,3.44-.53,80.91-46.71Zm2.75,1.59-78.32,45.22,3.45-.53,76.13-44Zm-8.26-4.77L143,290.11l1.26.73,83.5-48.21Zm2.76,1.59-83.5,48.21,1.26.73,83.5-48.21Z"/><path class="cls-24" d="M183.2,243.45q5.88-8.19-2.13-12.82-5.82-3.36-14-1.93A49,49,0,0,0,155,232.77L148.53,229l-4.94,2.85,6.15,3.56-1.78,1-2,1.18h0l-6.13-3.54-4.94,2.86,6.13,3.53-12.55,7.25,4.9,2.83.63-.36H134l4.12-2.37q4.83,2.53,19.14,10.79,15.84,9.15,20.29,12l-2.64,1.52,0,0-2.1,1.2,4.95,2.86L190.3,269l6.18,3.57,4.94-2.85-6.18-3.57,0,0,.52-.31q1.7-1,3.21-1.92l6.28,3.63,4.94-2.86-6.65-3.83c4.62-3.34,7.36-6.29,8.12-8.83q1.68-5.6-4.49-9.16Q198.07,237.57,183.2,243.45Zm-27.3-3.59a17.15,17.15,0,0,1,7.87-2.5,13.88,13.88,0,0,1,7.55,2q3.47,2,3.18,4c-.19,1.34-1.74,2.85-4.62,4.52-1.14.66-2.2,1.2-3.21,1.67l-13.62-7.86C154,241.07,154.91,240.44,155.9,239.86Zm42.28,14.55q-.39,2.18-4.94,4.8a15.53,15.53,0,0,1-5.91,2.32l-14.41-8.32c1-.74,2.09-1.45,3.2-2.09a21.86,21.86,0,0,1,9.88-3.24,15.6,15.6,0,0,1,8.75,2.16C197.3,251.51,198.45,253,198.18,254.41Z"/><g class="cls-25"><path class="cls-26" d="M197.68,255.58a13.08,13.08,0,0,1-4.44,3.63,15.53,15.53,0,0,1-5.91,2.32l-14-8.1-.76.52L187,262.27a15.43,15.43,0,0,0,5.9-2.32C195.6,258.37,197.2,256.91,197.68,255.58Z"/><path class="cls-27" d="M139.42,234.83l6.13,3.54h0l2-1.18c.6-.35,1.19-.67,1.78-1l-.47-.27-.94.52-2,1.18h0l-6.13-3.54-4.94,2.86.46.26Z"/><path class="cls-28" d="M174.56,272.85l2.63-1.52-.44-.27-1.82,1.05,0,0-2.1,1.2.46.27,1.27-.73Z"/><path class="cls-29" d="M148.16,229.78l6.46,3.73a49.41,49.41,0,0,1,12.09-4.07q8.17-1.42,14,1.93,6.68,3.85,3.69,10.19,3.74-6.85-3.32-10.93-5.82-3.36-14-1.93A49,49,0,0,0,155,232.77L148.53,229l-4.94,2.85.45.27Z"/><path class="cls-30" d="M166.29,250.34a35.72,35.72,0,0,0,3.21-1.67c2.6-1.49,4.1-2.86,4.52-4.1a12.55,12.55,0,0,1-4.14,3.36c-1.14.66-2.2,1.2-3.21,1.67L153.43,242l-.75.52Z"/><polygon class="cls-31" points="140.61 241.22 140.15 240.95 128.43 247.72 128.88 247.99 140.61 241.22"/><path class="cls-32" d="M203.14,261.53l6.19,3.57.83-.48-6.3-3.63Z"/><path class="cls-33" d="M207.14,242.8q-9-5.2-23.77.58-.26.41-.54.81,14.86-5.88,23.93-.64,6.18,3.55,4.5,9.16a5.79,5.79,0,0,1-.28.71,7.37,7.37,0,0,0,.65-1.46Q213.31,246.36,207.14,242.8Z"/><path class="cls-34" d="M195.35,266.52l-.52.3,0,0,5.72,3.31.83-.48-5.76-3.33Z"/></g><path class="cls-35" d="M174.5,243.41q.28-2-3.18-4a13.88,13.88,0,0,0-7.55-2,17.15,17.15,0,0,0-7.87,2.5c-1,.58-1.93,1.21-2.85,1.88L165,248.62a12.61,12.61,0,0,1,2.77.45c.69-.34,1.39-.71,2.14-1.14C172.76,246.26,174.31,244.75,174.5,243.41Z"/><path class="cls-36" d="M185.69,237h0q.08,2.89-2.49,6.46c.84-.34,1.67-.63,2.49-.91Z"/><path class="cls-37" d="M198.18,254.41c.27-1.44-.88-2.9-3.43-4.37a15.6,15.6,0,0,0-8.75-2.16,21.86,21.86,0,0,0-9.88,3.24c-1.11.64-2.17,1.35-3.2,2.09l10.69,6.17a18.32,18.32,0,0,1,2.39-.29,15.58,15.58,0,0,1,5.88.85c.44-.23.88-.46,1.36-.73Q197.79,256.58,198.18,254.41Z"/><path class="cls-38" d="M143.6,236.28l-3.81-2.2,6.13,3.54h0l2-1.18,1.78-1-6.15-3.56Z"/><polygon class="cls-39" points="134.88 244 128.43 247.72 140.98 240.47 134.85 236.94 134.88 244"/><polygon class="cls-40" points="201.42 269.67 196.48 272.52 196.48 283.73 201.42 280.88 201.42 269.67"/><polygon class="cls-41" points="205.22 267.48 205.22 278.69 210.16 275.84 210.16 264.62 205.22 267.48"/><polygon class="cls-42" points="198.94 263.85 198.94 268.23 195.21 266.08 198.94 263.85"/><polygon class="cls-43" points="190.3 268.95 190.3 280.16 177.75 287.41 177.75 276.2 190.3 268.95"/><polygon class="cls-44" points="133.32 250.55 133.32 261.76 138.14 259.04 138.14 247.83 133.32 250.55"/><polygon class="cls-45" points="190.3 268.95 196.48 272.52 196.48 283.73 190.3 280.16 190.3 268.95"/><polygon class="cls-46" points="198.94 263.85 198.94 268.23 201.42 269.67 201.42 276.49 205.22 278.69 205.22 267.48 198.94 263.85"/><polygon class="cls-47" points="172.81 273.34 172.81 284.56 177.75 287.41 177.75 276.2 172.81 273.34"/><polygon class="cls-48" points="138.14 247.83 138.14 259.04 172.83 278.92 172.83 273.34 177.57 270.59 159.42 259.86 138.14 247.83"/><polygon class="cls-49" points="128.43 247.72 133.32 250.55 133.32 261.76 128.43 258.94 128.43 247.72"/><path class="cls-50" d="M211.63,252c-.76,2.54-3.5,5.49-8.12,8.83l6.65,3.83v1.28a9,9,0,0,0,1.47-2.72,7.77,7.77,0,0,0,.35-2.68V249.32A7.76,7.76,0,0,1,211.63,252Z"/><path class="cls-51" d="M161.12,237.76a14.66,14.66,0,0,1,2.65-.4,12,12,0,0,1,2.86.26V228.8a40.27,40.27,0,0,0-5.51,1.48Zm-17.53-5.87,6.15,3.56-1.78,1-2,1.18h0l-6.13-3.54-4.06,2.35v1l5.25,3-5.25,3v5.72l2.41-1.39c2.57,1.35,7.16,3.92,13.72,7.68V231L148.53,229Zm17.53,29,5.51,3.2V249.58l-5.51-3.18ZM205.57,242a17,17,0,0,0-2.76-1v25l2.41,1.39.35-.21V262l-2.06-1.18c.74-.54,1.41-1.06,2.06-1.57Zm-18.24,19.52-13.77-7.95v14.56q2.58,1.55,4,2.45l-2.64,1.52,0,0-1.34.77v.87l4.19,2.42L190.3,269l6.18,3.57.53-.31v-5.09l-1.77-1,0,0,.52-.31L197,265v-8.61a16.6,16.6,0,0,1-3.77,2.8A15.53,15.53,0,0,1,187.33,261.53Zm-6.26-30.9a17.67,17.67,0,0,0-7.51-2.26v12.71a2.82,2.82,0,0,1,.94,2.33,3.5,3.5,0,0,1-.94,1.74v7.62c.83-.58,1.68-1.14,2.56-1.65a21.86,21.86,0,0,1,9.88-3.24,15.6,15.6,0,0,1,8.75,2.16,11,11,0,0,1,2.26,1.63V240.35a39.28,39.28,0,0,0-13.81,3.1Q189.08,235.26,181.07,230.63Z"/><polygon class="cls-52" points="98.12 217.7 111.9 188 192.17 175.58 242.3 204.52 228.53 234.25 148.26 246.68 98.12 217.7"/><polygon class="cls-53" points="98.12 172.5 111.9 142.8 192.17 130.38 242.3 159.32 228.53 189.04 148.26 201.48 98.12 172.5"/><polygon class="cls-54" points="98.12 125.87 111.9 96.17 192.17 83.76 242.3 112.7 228.53 142.42 148.26 154.86 98.12 125.87"/><polygon class="cls-55" points="111.9 234.48 192.17 222.07 242.3 251.01 245.77 243.54 192.17 212.59 111.9 225.01 94.65 262.18 98.12 264.18 111.9 234.48"/><g class="cls-56"><circle class="cls-57" cx="159.35" cy="65.03" r="2.14"/><path class="cls-58" d="M196.48,103.75a2.2,2.2,0,1,1-2.2-2.2A2.21,2.21,0,0,1,196.48,103.75Z"/><path class="cls-59" d="M158.58,76.8a2.26,2.26,0,1,1-2.25-2.25A2.26,2.26,0,0,1,158.58,76.8Z"/><path class="cls-60" d="M174,99.31a2.31,2.31,0,1,1-2.3-2.31A2.31,2.31,0,0,1,174,99.31Z"/><path class="cls-61" d="M172.16,122.29A2.19,2.19,0,1,1,170,120.1,2.19,2.19,0,0,1,172.16,122.29Z"/><path class="cls-62" d="M140.65,193.74a2.25,2.25,0,1,1-2.25-2.25A2.25,2.25,0,0,1,140.65,193.74Z"/><circle class="cls-63" cx="126.49" cy="219.3" r="2.22"/><path class="cls-64" d="M230.88,212.78a2.31,2.31,0,1,1-2.31-2.31A2.3,2.3,0,0,1,230.88,212.78Z"/><path class="cls-65" d="M187.39,157.66a2.2,2.2,0,1,1-2.2-2.19A2.2,2.2,0,0,1,187.39,157.66Z"/><path class="cls-66" d="M147.06,72.77a2.3,2.3,0,1,1-2.3-2.3A2.3,2.3,0,0,1,147.06,72.77Z"/><circle class="cls-67" cx="122.12" cy="61.77" r="2.18"/><circle class="cls-68" cx="101.92" cy="40.15" r="2.17"/><circle class="cls-69" cx="138.27" cy="49.14" r="2.26"/><path class="cls-70" d="M202.28,31a2.12,2.12,0,1,1-2.12-2.12A2.12,2.12,0,0,1,202.28,31Z"/><circle class="cls-71" cx="210.59" cy="49.97" r="2.13"/><path class="cls-72" d="M211.39,59.39a2.19,2.19,0,1,1-2.19-2.18A2.19,2.19,0,0,1,211.39,59.39Z"/><circle class="cls-73" cx="198.64" cy="79.14" r="2.22"/><path class="cls-74" d="M183.14,134.91A2.12,2.12,0,1,1,181,132.8,2.11,2.11,0,0,1,183.14,134.91Z"/><circle class="cls-75" cx="153.04" cy="86.79" r="2.18"/><circle class="cls-76" cx="118.83" cy="115.97" r="2.12"/><path class="cls-77" d="M115.81,88.09a2.19,2.19,0,1,1-2.19-2.19A2.19,2.19,0,0,1,115.81,88.09Z"/><path class="cls-78" d="M139.75,147.61a2.2,2.2,0,1,1-2.2-2.2A2.19,2.19,0,0,1,139.75,147.61Z"/><path class="cls-79" d="M217,157.32A2.29,2.29,0,1,1,214.7,155,2.28,2.28,0,0,1,217,157.32Z"/><path class="cls-80" d="M224.11,197.71a2.19,2.19,0,1,1-2.19-2.19A2.19,2.19,0,0,1,224.11,197.71Z"/><path class="cls-81" d="M156.2,157.93a2.24,2.24,0,1,1-2.24-2.24A2.24,2.24,0,0,1,156.2,157.93Z"/><path class="cls-82" d="M232.4,226.33a2.31,2.31,0,1,1-2.31-2.3A2.3,2.3,0,0,1,232.4,226.33Z"/><path class="cls-83" d="M124.37,159.6a2.25,2.25,0,1,1-2.25-2.25A2.25,2.25,0,0,1,124.37,159.6Z"/><path class="cls-84" d="M167.29,191.49a2.3,2.3,0,1,1-2.3-2.3A2.3,2.3,0,0,1,167.29,191.49Z"/><path class="cls-85" d="M120.75,197.68a2.31,2.31,0,1,1-2.31-2.31A2.3,2.3,0,0,1,120.75,197.68Z"/><path class="cls-86" d="M188.64,196.14A2.14,2.14,0,1,1,186.5,194,2.13,2.13,0,0,1,188.64,196.14Z"/><path class="cls-87" d="M175.07,155.09a2.17,2.17,0,1,1-2.17-2.16A2.17,2.17,0,0,1,175.07,155.09Z"/><path class="cls-88" d="M223.94,140.94a2.26,2.26,0,1,1-2.25-2.26A2.26,2.26,0,0,1,223.94,140.94Z"/><path class="cls-89" d="M204.23,102.54a2.3,2.3,0,1,1-2.3-2.3A2.3,2.3,0,0,1,204.23,102.54Z"/><path class="cls-90" d="M171,51.12a2.21,2.21,0,1,1-2.2-2.21A2.21,2.21,0,0,1,171,51.12Z"/><path class="cls-91" d="M172.36,47.35a2.18,2.18,0,1,1-2.18-2.17A2.17,2.17,0,0,1,172.36,47.35Z"/><path class="cls-92" d="M195.41,87.29a2.17,2.17,0,1,1-2.17-2.17A2.17,2.17,0,0,1,195.41,87.29Z"/></g><path class="cls-93" d="M205.85,117.65a1.6,1.6,0,0,0-1-.32,2.67,2.67,0,0,0-1.26.4,5.19,5.19,0,0,0-1.26,1.06,7.39,7.39,0,0,0-1,1.48,8.24,8.24,0,0,0-.66,1.74,7.3,7.3,0,0,0-.24,1.86,4.57,4.57,0,0,0,.24,1.58,2.18,2.18,0,0,0,.66,1,1.51,1.51,0,0,0,1,.31,2.62,2.62,0,0,0,1.26-.41,5.28,5.28,0,0,0,1.26-1,7.43,7.43,0,0,0,1-1.48,8.24,8.24,0,0,0,.66-1.74,7.42,7.42,0,0,0,.24-1.86,4.57,4.57,0,0,0-.24-1.58A2.18,2.18,0,0,0,205.85,117.65Zm-.87,4.62a4.32,4.32,0,0,1-.31,1,3.46,3.46,0,0,1-.48.8,2.07,2.07,0,0,1-.61.54,1,1,0,0,1-.62.17.67.67,0,0,1-.47-.25,1.45,1.45,0,0,1-.32-.62,3.93,3.93,0,0,1-.11-1,5.8,5.8,0,0,1,.11-1.11,4.79,4.79,0,0,1,.32-1,3.44,3.44,0,0,1,.47-.8,2.38,2.38,0,0,1,.62-.54,1,1,0,0,1,.61-.17.69.69,0,0,1,.48.25,1.38,1.38,0,0,1,.31.63,3.53,3.53,0,0,1,.11,1A5,5,0,0,1,205,122.27Zm-72.89-21c.19-.21.36-.42.52-.63a3.21,3.21,0,0,0,.35-.55v4.29l-1.74,1v1.71l5-2.88v-1.71l-1.56.9V97.07L133,98a3.5,3.5,0,0,1-.29.51c-.15.23-.33.49-.53.75a9.58,9.58,0,0,1-.63.75,2.37,2.37,0,0,1-.54.48v1.77a3.21,3.21,0,0,0,.54-.41A8.11,8.11,0,0,0,132.09,101.3Zm0,22.93c.19-.21.36-.42.52-.63a2.86,2.86,0,0,0,.35-.55v4.29l-1.74,1v1.71l5-2.87v-1.72l-1.56.9V120L133,121a3,3,0,0,1-.29.51c-.15.24-.33.49-.53.76a9.58,9.58,0,0,1-.63.75,2.28,2.28,0,0,1-.54.47v1.77a3.08,3.08,0,0,0,.54-.4A6.64,6.64,0,0,0,132.09,124.23Zm-8.78-16.9c.18-.21.36-.42.52-.63a3.46,3.46,0,0,0,.35-.55v4.29l-1.74,1v1.71l5-2.87v-1.72l-1.56.9V103.1l-1.68,1a3,3,0,0,1-.29.51c-.15.24-.33.49-.53.76s-.42.52-.63.75a2.28,2.28,0,0,1-.54.47v1.77a3.06,3.06,0,0,0,.53-.41A6.57,6.57,0,0,0,123.31,107.33Zm8.78,5.44c.19-.21.36-.43.52-.64a2.86,2.86,0,0,0,.35-.55v4.3l-1.74,1v1.72l5-2.88V114l-1.56.9v-6.38l-1.68,1a3.45,3.45,0,0,1-.29.52c-.15.23-.33.48-.53.75a9.58,9.58,0,0,1-.63.75,2.64,2.64,0,0,1-.54.48v1.77a3.21,3.21,0,0,0,.54-.41A8.11,8.11,0,0,0,132.09,112.77Zm-8.78-16.9c.18-.22.36-.43.52-.64a3.46,3.46,0,0,0,.35-.55V99l-1.74,1v1.71l5-2.87V97.1l-1.56.9V91.63l-1.68,1a3,3,0,0,1-.29.51c-.15.24-.33.49-.53.76s-.42.52-.63.75a2.28,2.28,0,0,1-.54.47v1.77a2.93,2.93,0,0,0,.53-.4A8.21,8.21,0,0,0,123.31,95.87Zm0,22.93c.18-.21.36-.42.52-.63a4,4,0,0,0,.35-.55v4.29l-1.74,1v1.72l5-2.88V120l-1.56.9v-6.38l-1.68,1a3.45,3.45,0,0,1-.29.52c-.15.23-.33.48-.53.75s-.42.52-.63.75a2.64,2.64,0,0,1-.54.48v1.77a3.65,3.65,0,0,0,.53-.41A8.21,8.21,0,0,0,123.31,118.8Zm82.54,21.79a1.55,1.55,0,0,0-1-.32,2.57,2.57,0,0,0-1.26.4,4.93,4.93,0,0,0-1.26,1.05,7.39,7.39,0,0,0-1,1.48,8.24,8.24,0,0,0-.66,1.74,7.42,7.42,0,0,0-.24,1.86,4.57,4.57,0,0,0,.24,1.58,2.18,2.18,0,0,0,.66,1,1.52,1.52,0,0,0,1,.32,2.64,2.64,0,0,0,1.26-.42,5.05,5.05,0,0,0,1.26-1,7.65,7.65,0,0,0,1-1.47,8.54,8.54,0,0,0,.66-1.75,7.28,7.28,0,0,0,.24-1.85,4.59,4.59,0,0,0-.24-1.59A2.09,2.09,0,0,0,205.85,140.59ZM205,145.2a4.57,4.57,0,0,1-.31,1,3.69,3.69,0,0,1-.48.8,2,2,0,0,1-.61.53,1.12,1.12,0,0,1-.62.18.71.71,0,0,1-.47-.25,1.55,1.55,0,0,1-.32-.63,3.87,3.87,0,0,1-.11-1,5.7,5.7,0,0,1,.11-1.1,4.88,4.88,0,0,1,.32-1,3.66,3.66,0,0,1,.47-.8,2.38,2.38,0,0,1,.62-.54,1.11,1.11,0,0,1,.61-.17.73.73,0,0,1,.48.25,1.43,1.43,0,0,1,.31.63,3.58,3.58,0,0,1,.11,1A5,5,0,0,1,205,145.2Zm-78-18.94a1.56,1.56,0,0,0-1-.32,2.67,2.67,0,0,0-1.26.4,5,5,0,0,0-1.26,1.06,7,7,0,0,0-1,1.48,7.75,7.75,0,0,0-.67,1.74,7.3,7.3,0,0,0-.24,1.86,4.57,4.57,0,0,0,.24,1.58,2.11,2.11,0,0,0,.67,1,1.49,1.49,0,0,0,1,.31,2.77,2.77,0,0,0,1.26-.41,5.28,5.28,0,0,0,1.26-1,7,7,0,0,0,1-1.48,7.75,7.75,0,0,0,.67-1.74,7.89,7.89,0,0,0,.23-1.86,4.84,4.84,0,0,0-.23-1.58A2.11,2.11,0,0,0,126.94,126.26Zm-.86,4.62a4.33,4.33,0,0,1-.32,1,3.44,3.44,0,0,1-.47.8,2.35,2.35,0,0,1-.61.54,1.06,1.06,0,0,1-.62.17.71.71,0,0,1-.48-.25,1.44,1.44,0,0,1-.31-.62,3.93,3.93,0,0,1-.11-1,5.8,5.8,0,0,1,.11-1.11,4.78,4.78,0,0,1,.31-1,3.85,3.85,0,0,1,.48-.8,2.1,2.1,0,0,1,.62-.54,1,1,0,0,1,.61-.17.67.67,0,0,1,.47.25,1.38,1.38,0,0,1,.32.63,4,4,0,0,1,.11,1A5.7,5.7,0,0,1,126.08,130.88Zm.86,6.85a1.5,1.5,0,0,0-1-.32,2.67,2.67,0,0,0-1.26.4,4.81,4.81,0,0,0-1.26,1.06,6.92,6.92,0,0,0-1,1.47,8.14,8.14,0,0,0-.67,1.74,7.42,7.42,0,0,0-.24,1.86,4.53,4.53,0,0,0,.24,1.58,2.06,2.06,0,0,0,.67,1,1.5,1.5,0,0,0,1,.32,2.77,2.77,0,0,0,1.26-.41,5.1,5.1,0,0,0,1.26-1,6.92,6.92,0,0,0,1-1.47,8.14,8.14,0,0,0,.67-1.74,7.89,7.89,0,0,0,.23-1.86,4.8,4.8,0,0,0-.23-1.58A2.06,2.06,0,0,0,126.94,137.73Zm-.86,4.61a4.26,4.26,0,0,1-.32,1,3.66,3.66,0,0,1-.47.8,2.13,2.13,0,0,1-.61.53,1.08,1.08,0,0,1-.62.18.75.75,0,0,1-.48-.25,1.55,1.55,0,0,1-.31-.63,3.81,3.81,0,0,1-.11-1,5.78,5.78,0,0,1,.11-1.1,5.08,5.08,0,0,1,.31-1,4.14,4.14,0,0,1,.48-.8,2.1,2.1,0,0,1,.62-.54,1,1,0,0,1,.61-.16.66.66,0,0,1,.47.24,1.43,1.43,0,0,1,.32.64,3.93,3.93,0,0,1,.11,1A5.62,5.62,0,0,1,126.08,142.34Zm79.77,9.71a1.6,1.6,0,0,0-1-.32,2.67,2.67,0,0,0-1.26.4,5.19,5.19,0,0,0-1.26,1.06,7.39,7.39,0,0,0-1,1.48,8.24,8.24,0,0,0-.66,1.74,7.3,7.3,0,0,0-.24,1.86,4.57,4.57,0,0,0,.24,1.58,2.18,2.18,0,0,0,.66,1,1.51,1.51,0,0,0,1,.31,2.62,2.62,0,0,0,1.26-.41,5.28,5.28,0,0,0,1.26-1,7.43,7.43,0,0,0,1-1.48,8.24,8.24,0,0,0,.66-1.74,7.42,7.42,0,0,0,.24-1.86,4.57,4.57,0,0,0-.24-1.58A2.18,2.18,0,0,0,205.85,152.05Zm-.87,4.62a4.32,4.32,0,0,1-.31,1,3.46,3.46,0,0,1-.48.8,2.07,2.07,0,0,1-.61.54,1,1,0,0,1-.62.17.67.67,0,0,1-.47-.25,1.45,1.45,0,0,1-.32-.62,3.93,3.93,0,0,1-.11-1,5.8,5.8,0,0,1,.11-1.11,4.79,4.79,0,0,1,.32-1,3.44,3.44,0,0,1,.47-.8,2.38,2.38,0,0,1,.62-.54,1,1,0,0,1,.61-.17.69.69,0,0,1,.48.25,1.38,1.38,0,0,1,.31.63,3.53,3.53,0,0,1,.11,1A5,5,0,0,1,205,156.67Zm-78,26.92a1.55,1.55,0,0,0-1-.31,2.57,2.57,0,0,0-1.26.4,4.76,4.76,0,0,0-1.26,1,7,7,0,0,0-1,1.48,7.75,7.75,0,0,0-.67,1.74,7.42,7.42,0,0,0-.24,1.86,4.57,4.57,0,0,0,.24,1.58,2.11,2.11,0,0,0,.67,1,1.49,1.49,0,0,0,1,.31,2.55,2.55,0,0,0,1.26-.41,5.05,5.05,0,0,0,1.26-1,7.19,7.19,0,0,0,1-1.47,8,8,0,0,0,.67-1.75,7.77,7.77,0,0,0,.23-1.86,4.84,4.84,0,0,0-.23-1.58A2.11,2.11,0,0,0,126.94,183.59Zm-.86,4.62a4.59,4.59,0,0,1-.32,1,3.66,3.66,0,0,1-.47.8,2.3,2.3,0,0,1-.61.53,1.06,1.06,0,0,1-.62.17.7.7,0,0,1-.48-.24,1.55,1.55,0,0,1-.31-.63,3.87,3.87,0,0,1-.11-1,5.8,5.8,0,0,1,.11-1.11,5,5,0,0,1,.31-1,4.14,4.14,0,0,1,.48-.8,2.1,2.1,0,0,1,.62-.54,1,1,0,0,1,.61-.17.71.71,0,0,1,.47.25,1.44,1.44,0,0,1,.32.63,4,4,0,0,1,.11,1A5.7,5.7,0,0,1,126.08,188.21Zm9.65.82a1.55,1.55,0,0,0-1-.32,2.67,2.67,0,0,0-1.26.4,5.19,5.19,0,0,0-1.26,1.06,7.61,7.61,0,0,0-1,1.47,8.67,8.67,0,0,0-.66,1.74,7.42,7.42,0,0,0-.24,1.86,4.63,4.63,0,0,0,.24,1.59,2.14,2.14,0,0,0,.66,1,1.52,1.52,0,0,0,1,.32,2.73,2.73,0,0,0,1.26-.41,5.1,5.1,0,0,0,1.26-1.05,7.08,7.08,0,0,0,1-1.47,8.67,8.67,0,0,0,.66-1.74,7.42,7.42,0,0,0,.24-1.86,4.57,4.57,0,0,0-.24-1.58A2.12,2.12,0,0,0,135.73,189Zm-.87,4.61a4.78,4.78,0,0,1-.31,1,3.46,3.46,0,0,1-.48.8,2.2,2.2,0,0,1-.61.54,1,1,0,0,1-.62.17.71.71,0,0,1-.47-.25,1.57,1.57,0,0,1-.32-.62,3.93,3.93,0,0,1-.11-1,5.8,5.8,0,0,1,.11-1.11,4.79,4.79,0,0,1,.32-1,3.25,3.25,0,0,1,.47-.8,2.46,2.46,0,0,1,.62-.55,1.07,1.07,0,0,1,.61-.16.69.69,0,0,1,.48.25,1.43,1.43,0,0,1,.31.63,3.53,3.53,0,0,1,.11,1A4.92,4.92,0,0,1,134.86,193.64Zm-10.68-43.71a3.45,3.45,0,0,1-.29.52c-.15.23-.33.48-.53.75s-.42.52-.63.75a2.64,2.64,0,0,1-.54.48v1.77a3.65,3.65,0,0,0,.53-.41,8.21,8.21,0,0,0,.59-.59c.18-.21.36-.42.52-.64a4,4,0,0,0,.35-.54v4.29l-1.74,1V159l5-2.88v-1.71l-1.56.9V149Zm2.76,22.2a1.5,1.5,0,0,0-1-.32,2.67,2.67,0,0,0-1.26.4,4.81,4.81,0,0,0-1.26,1.06,6.92,6.92,0,0,0-1,1.47,8.14,8.14,0,0,0-.67,1.74,7.42,7.42,0,0,0-.24,1.86,4.53,4.53,0,0,0,.24,1.58,2.06,2.06,0,0,0,.67,1,1.5,1.5,0,0,0,1,.32,2.77,2.77,0,0,0,1.26-.41,5.1,5.1,0,0,0,1.26-1.05,6.92,6.92,0,0,0,1-1.47,8.14,8.14,0,0,0,.67-1.74,7.89,7.89,0,0,0,.23-1.86,4.8,4.8,0,0,0-.23-1.58A2.06,2.06,0,0,0,126.94,172.13Zm-.86,4.61a4.26,4.26,0,0,1-.32,1,3.66,3.66,0,0,1-.47.8,2.13,2.13,0,0,1-.61.53,1,1,0,0,1-.62.18.75.75,0,0,1-.48-.25,1.55,1.55,0,0,1-.31-.63,3.81,3.81,0,0,1-.11-1,5.78,5.78,0,0,1,.11-1.1,5.08,5.08,0,0,1,.31-1,4.14,4.14,0,0,1,.48-.8,2.1,2.1,0,0,1,.62-.54,1,1,0,0,1,.61-.16.66.66,0,0,1,.47.24,1.43,1.43,0,0,1,.32.64,3.93,3.93,0,0,1,.11,1A5.62,5.62,0,0,1,126.08,176.74Zm77-46.88a2.45,2.45,0,0,1-.29.51c-.15.24-.33.49-.53.76s-.41.52-.62.75a2.75,2.75,0,0,1-.54.47v1.77a3.06,3.06,0,0,0,.53-.41,6.49,6.49,0,0,0,.58-.59c.19-.21.36-.42.52-.63a2.86,2.86,0,0,0,.35-.55v4.29l-1.74,1V139l5-2.87v-1.72l-1.56.9v-6.37Zm-76.14,30.8a1.56,1.56,0,0,0-1-.32,2.67,2.67,0,0,0-1.26.4,5,5,0,0,0-1.26,1.06,7,7,0,0,0-1,1.48,7.75,7.75,0,0,0-.67,1.74,7.3,7.3,0,0,0-.24,1.86,4.57,4.57,0,0,0,.24,1.58,2.11,2.11,0,0,0,.67,1,1.49,1.49,0,0,0,1,.31,2.77,2.77,0,0,0,1.26-.41,5.28,5.28,0,0,0,1.26-1,7,7,0,0,0,1-1.48,7.75,7.75,0,0,0,.67-1.74,7.89,7.89,0,0,0,.23-1.86,4.84,4.84,0,0,0-.23-1.58A2.11,2.11,0,0,0,126.94,160.66Zm-.86,4.62a4.33,4.33,0,0,1-.32,1,3.25,3.25,0,0,1-.47.8,2.35,2.35,0,0,1-.61.54,1.06,1.06,0,0,1-.62.17.71.71,0,0,1-.48-.25,1.44,1.44,0,0,1-.31-.62,3.93,3.93,0,0,1-.11-1,5.8,5.8,0,0,1,.11-1.11,4.78,4.78,0,0,1,.31-1,3.85,3.85,0,0,1,.48-.8,2.3,2.3,0,0,1,.62-.55,1.06,1.06,0,0,1,.61-.16.67.67,0,0,1,.47.25,1.38,1.38,0,0,1,.32.63,4,4,0,0,1,.11,1A5.7,5.7,0,0,1,126.08,165.28Zm41.69-83.62c.18-.21.36-.42.52-.63a3.46,3.46,0,0,0,.35-.55v4.29l-1.74,1v1.71l5-2.87V82.9l-1.56.9V77.43l-1.68,1a3,3,0,0,1-.29.51,9.17,9.17,0,0,1-.54.76,9.51,9.51,0,0,1-.62.75,2.28,2.28,0,0,1-.54.47v1.77a3.06,3.06,0,0,0,.53-.41A6.57,6.57,0,0,0,167.77,81.66Zm17.65-26.12c.18-.21.36-.42.52-.63a4,4,0,0,0,.35-.55v4.29l-1.74,1v1.71l5-2.88V56.78l-1.56.9V51.31l-1.68,1a3.5,3.5,0,0,1-.29.51c-.15.23-.33.48-.53.75s-.42.52-.63.75a2.37,2.37,0,0,1-.54.48v1.77a3.18,3.18,0,0,0,.53-.41A8.21,8.21,0,0,0,185.42,55.54Zm0,11.47c.18-.21.36-.43.52-.64a3.46,3.46,0,0,0,.35-.55v4.3l-1.74,1v1.72l5-2.88V68.25l-1.56.9V62.77l-1.68,1a3.45,3.45,0,0,1-.29.52c-.15.23-.33.48-.53.75s-.42.52-.63.75a2.28,2.28,0,0,1-.54.47V68a3.18,3.18,0,0,0,.53-.41A8.21,8.21,0,0,0,185.42,67Zm8.92,6.61c.19-.21.36-.42.52-.63a3.21,3.21,0,0,0,.35-.55v4.29l-1.74,1v1.72l5-2.88V74.86l-1.56.9V69.38l-1.68,1a3.45,3.45,0,0,1-.29.52c-.15.23-.33.48-.53.75a9.58,9.58,0,0,1-.63.75,2.64,2.64,0,0,1-.54.48v1.77a3.21,3.21,0,0,0,.54-.41A8.11,8.11,0,0,0,194.34,73.62Zm0,11.47c.19-.21.36-.43.52-.64a2.86,2.86,0,0,0,.35-.55v4.3l-1.74,1v1.72l5-2.88V86.33l-1.56.9V80.85l-1.68,1a3.45,3.45,0,0,1-.29.52c-.15.23-.33.48-.53.75a9.58,9.58,0,0,1-.63.75,2.28,2.28,0,0,1-.54.47v1.78a3.21,3.21,0,0,0,.54-.41A8.11,8.11,0,0,0,194.34,85.09Zm-17.79-9.46c.19-.21.36-.42.52-.63a2.86,2.86,0,0,0,.35-.55v4.29l-1.74,1v1.71l5-2.87V76.87l-1.56.9V71.4l-1.68,1a3,3,0,0,1-.29.51c-.15.24-.33.49-.53.76s-.41.52-.63.75a2.28,2.28,0,0,1-.54.47v1.77a2.74,2.74,0,0,0,.54-.41A6.49,6.49,0,0,0,176.55,75.63Zm8.87,2.84c.18-.21.36-.42.52-.63a3.46,3.46,0,0,0,.35-.55v4.29l-1.74,1V84.3l5-2.87V79.71l-1.56.9V74.24l-1.68,1a3,3,0,0,1-.29.51c-.15.24-.33.49-.53.76s-.42.52-.63.75a2.28,2.28,0,0,1-.54.47v1.77a3.06,3.06,0,0,0,.53-.4A8.38,8.38,0,0,0,185.42,78.47Zm16.79,20.25c.19-.21.36-.42.52-.63a2.86,2.86,0,0,0,.35-.55v4.29l-1.74,1v1.71l5-2.87V100l-1.56.9V94.49l-1.68,1a2.45,2.45,0,0,1-.29.51c-.15.24-.33.49-.53.76a9.51,9.51,0,0,1-.62.75,2.75,2.75,0,0,1-.54.47v1.77a3.06,3.06,0,0,0,.53-.41A6.49,6.49,0,0,0,202.21,98.72Zm-7.87-36.57c.19-.21.36-.42.52-.63a2.86,2.86,0,0,0,.35-.55v4.29l-1.74,1V68l5-2.87V63.39l-1.56.9V57.92l-1.68,1a3,3,0,0,1-.29.51c-.15.24-.33.49-.53.76a9.58,9.58,0,0,1-.63.75,2.28,2.28,0,0,1-.54.47v1.77a2.74,2.74,0,0,0,.54-.41A6.49,6.49,0,0,0,194.34,62.15Zm7.87,13.64c.19-.21.36-.42.52-.63a3.21,3.21,0,0,0,.35-.55V78.9l-1.74,1v1.72l5-2.88V77l-1.56.9V71.55l-1.68,1a2.72,2.72,0,0,1-.29.52c-.15.23-.33.48-.53.75a9.51,9.51,0,0,1-.62.75,3.3,3.3,0,0,1-.54.48v1.77a3.65,3.65,0,0,0,.53-.41A8.11,8.11,0,0,0,202.21,75.79Zm0,11.47c.19-.22.36-.43.52-.64a2.86,2.86,0,0,0,.35-.55v4.29l-1.74,1v1.72l5-2.88V88.49l-1.56.9V83l-1.68,1a2.45,2.45,0,0,1-.29.51c-.15.24-.33.49-.53.76a9.51,9.51,0,0,1-.62.75,2.75,2.75,0,0,1-.54.47v1.77a2.93,2.93,0,0,0,.53-.4A8.11,8.11,0,0,0,202.21,87.26Zm-25.66-.16a7.67,7.67,0,0,0,.52-.64,3.18,3.18,0,0,0,.35-.54v4.29l-1.74,1v1.72l5-2.88V88.34l-1.56.9V82.86l-1.68,1a3.45,3.45,0,0,1-.29.52c-.15.23-.33.48-.53.75a9.58,9.58,0,0,1-.63.75,2.64,2.64,0,0,1-.54.48V88.1a3.21,3.21,0,0,0,.54-.41A8.11,8.11,0,0,0,176.55,87.1ZM201.32,115a1.52,1.52,0,0,0,1,.32,2.64,2.64,0,0,0,1.26-.42,5.05,5.05,0,0,0,1.26-1,7.65,7.65,0,0,0,1-1.47,8.54,8.54,0,0,0,.66-1.75,7.28,7.28,0,0,0,.24-1.85,4.59,4.59,0,0,0-.24-1.59,2.09,2.09,0,0,0-.66-1,1.55,1.55,0,0,0-1-.32,2.57,2.57,0,0,0-1.26.4,4.93,4.93,0,0,0-1.26,1,7.39,7.39,0,0,0-1,1.48,8.24,8.24,0,0,0-.66,1.74,7.42,7.42,0,0,0-.24,1.86,4.57,4.57,0,0,0,.24,1.58A2.18,2.18,0,0,0,201.32,115Zm.85-4.61a4.88,4.88,0,0,1,.32-1,3.66,3.66,0,0,1,.47-.8,2.38,2.38,0,0,1,.62-.54,1.11,1.11,0,0,1,.61-.17.73.73,0,0,1,.48.25,1.43,1.43,0,0,1,.31.63,3.58,3.58,0,0,1,.11,1,5,5,0,0,1-.11,1.1,4.57,4.57,0,0,1-.31,1,3.69,3.69,0,0,1-.48.8,2,2,0,0,1-.61.53,1.12,1.12,0,0,1-.62.18.71.71,0,0,1-.47-.25,1.55,1.55,0,0,1-.32-.63,3.87,3.87,0,0,1-.11-1A5.7,5.7,0,0,1,202.17,110.35Zm-52.29.41c.19-.22.36-.43.52-.64a2.86,2.86,0,0,0,.35-.55v4.29l-1.74,1v1.71l5-2.87V112l-1.56.9v-6.37l-1.68,1a3,3,0,0,1-.29.51c-.15.24-.33.49-.53.76a9.58,9.58,0,0,1-.63.75,2.28,2.28,0,0,1-.54.47v1.77a2.65,2.65,0,0,0,.54-.4A8.11,8.11,0,0,0,149.88,110.76Zm0-11.47a7.67,7.67,0,0,0,.52-.64,3.18,3.18,0,0,0,.35-.54v4.29l-1.74,1v1.72l5-2.88v-1.71l-1.56.9V95.05l-1.68,1a3.45,3.45,0,0,1-.29.52c-.15.23-.33.48-.53.75a9.58,9.58,0,0,1-.63.75,2.64,2.64,0,0,1-.54.48v1.77a3.21,3.21,0,0,0,.54-.41A8.11,8.11,0,0,0,149.88,99.29Zm26.67-.72c.19-.22.36-.43.52-.64a2.86,2.86,0,0,0,.35-.55v4.29l-1.74,1v1.72l5-2.88V99.8l-1.56.9V94.33l-1.68,1a3,3,0,0,1-.29.51c-.15.24-.33.49-.53.76a9.58,9.58,0,0,1-.63.75,2.28,2.28,0,0,1-.54.47v1.77a2.65,2.65,0,0,0,.54-.4A8.11,8.11,0,0,0,176.55,98.57ZM141,104.14c.18-.21.36-.42.52-.63a3.46,3.46,0,0,0,.35-.55v4.29l-1.74,1V110l5-2.87v-1.72l-1.56.9V99.91l-1.68,1a3,3,0,0,1-.29.51c-.15.24-.33.49-.53.76s-.42.52-.63.75a2.28,2.28,0,0,1-.54.47v1.77a3.07,3.07,0,0,0,.54-.41A8.14,8.14,0,0,0,141,104.14Zm0-22.93c.18-.21.36-.42.52-.64a3.43,3.43,0,0,0,.35-.54v4.29l-1.74,1V87l5-2.88V82.45l-1.56.9V77l-1.68,1a3.45,3.45,0,0,1-.29.52c-.15.23-.33.48-.53.75s-.42.52-.63.75a2.64,2.64,0,0,1-.54.48v1.77a3.67,3.67,0,0,0,.54-.41C140.57,81.62,140.77,81.42,141,81.21Zm0,11.47c.18-.22.36-.43.52-.64a3.46,3.46,0,0,0,.35-.55v4.29l-1.74,1V98.5l5-2.87V93.91l-1.56.9V88.44l-1.68,1a3,3,0,0,1-.29.51c-.15.24-.33.49-.53.76s-.42.52-.63.75a2.28,2.28,0,0,1-.54.47v1.77a3,3,0,0,0,.54-.4C140.57,93.09,140.77,92.89,141,92.68Zm16.79,31.71c.19-.21.36-.42.52-.63a2.86,2.86,0,0,0,.35-.55v4.29l-1.74,1v1.71l5-2.87v-1.72l-1.56.9v-6.37l-1.68,1a2.45,2.45,0,0,1-.29.51c-.15.24-.33.49-.53.76s-.41.51-.62.75a2.75,2.75,0,0,1-.54.47v1.77a3.06,3.06,0,0,0,.53-.41A8.11,8.11,0,0,0,157.75,124.39Zm-7.87-36.57c.19-.21.36-.42.52-.63a2.86,2.86,0,0,0,.35-.55v4.29l-1.74,1v1.71l5-2.88V89.06l-1.56.9V83.59l-1.68,1a3,3,0,0,1-.29.51c-.15.23-.33.49-.53.76s-.41.51-.63.75a2.54,2.54,0,0,1-.54.47v1.77a2.74,2.74,0,0,0,.54-.41A8.11,8.11,0,0,0,149.88,87.82Zm-14.15,89.74a1.6,1.6,0,0,0-1-.32,2.79,2.79,0,0,0-1.26.4,5.19,5.19,0,0,0-1.26,1.06,7.39,7.39,0,0,0-1,1.48,8.24,8.24,0,0,0-.66,1.74,7.36,7.36,0,0,0-.24,1.86,4.57,4.57,0,0,0,.24,1.58,2.18,2.18,0,0,0,.66,1,1.51,1.51,0,0,0,1,.31,2.62,2.62,0,0,0,1.26-.41,5.05,5.05,0,0,0,1.26-1,7.43,7.43,0,0,0,1-1.48,8.24,8.24,0,0,0,.66-1.74,7.3,7.3,0,0,0,.24-1.86,4.57,4.57,0,0,0-.24-1.58A2.18,2.18,0,0,0,135.73,177.56Zm-.87,4.62a5.2,5.2,0,0,1-.31,1,3.69,3.69,0,0,1-.48.8,2.33,2.33,0,0,1-.61.53,1,1,0,0,1-.62.17.7.7,0,0,1-.47-.24,1.55,1.55,0,0,1-.32-.63,3.87,3.87,0,0,1-.11-1,5.8,5.8,0,0,1,.11-1.11,4.79,4.79,0,0,1,.32-1,3.44,3.44,0,0,1,.47-.8,2.23,2.23,0,0,1,.62-.54,1,1,0,0,1,.61-.17.73.73,0,0,1,.48.25,1.55,1.55,0,0,1,.31.63,3.58,3.58,0,0,1,.11,1A5,5,0,0,1,134.86,182.18Zm32.91-112c.18-.21.36-.43.52-.64a3.46,3.46,0,0,0,.35-.55v4.3l-1.74,1V76l5-2.88V71.44l-1.56.9V66l-1.68,1a3.45,3.45,0,0,1-.29.52q-.22.35-.54.75a9.51,9.51,0,0,1-.62.75,2.28,2.28,0,0,1-.54.47V71.2a3.65,3.65,0,0,0,.53-.41A8.21,8.21,0,0,0,167.77,70.2Zm0,22.93c.18-.21.36-.42.52-.63a4,4,0,0,0,.35-.55v4.29l-1.74,1V99l5-2.88V94.37l-1.56.9V88.9l-1.68,1a3.5,3.5,0,0,1-.29.51,9.12,9.12,0,0,1-.54.75,9.51,9.51,0,0,1-.62.75,2.37,2.37,0,0,1-.54.48v1.77a3.65,3.65,0,0,0,.53-.41A8.21,8.21,0,0,0,167.77,93.13Zm-10,19.79c.19-.21.36-.42.52-.63a2.86,2.86,0,0,0,.35-.55V116l-1.74,1v1.71l5-2.87v-1.72l-1.56.9v-6.37l-1.68,1a2.45,2.45,0,0,1-.29.51c-.15.24-.33.49-.53.76a9.51,9.51,0,0,1-.62.75,2.75,2.75,0,0,1-.54.47v1.77a3.49,3.49,0,0,0,.53-.4A8.28,8.28,0,0,0,157.75,112.92Zm0-11.46a7.67,7.67,0,0,0,.52-.64,3.18,3.18,0,0,0,.35-.54v4.29l-1.74,1v1.72l5-2.88V102.7l-1.56.9V97.22l-1.68,1a2.72,2.72,0,0,1-.29.52c-.15.23-.33.48-.53.75a9.51,9.51,0,0,1-.62.75,3.3,3.3,0,0,1-.54.48v1.77a3.65,3.65,0,0,0,.53-.41A8.11,8.11,0,0,0,157.75,101.46Zm19.67,28.24a3,3,0,0,1-.29.51c-.15.24-.33.49-.53.76a9.58,9.58,0,0,1-.63.75,2.28,2.28,0,0,1-.54.47V134a3.08,3.08,0,0,0,.54-.4,6.64,6.64,0,0,0,.58-.6c.19-.21.36-.42.52-.63a2.86,2.86,0,0,0,.35-.55v4.29l-1.74,1v1.71l5-2.87V134.2l-1.56.9v-6.37Zm-6,16.76a1.5,1.5,0,0,0-1-.32,2.67,2.67,0,0,0-1.26.4,4.81,4.81,0,0,0-1.26,1.06,7.19,7.19,0,0,0-1,1.47,8.14,8.14,0,0,0-.67,1.74,7.42,7.42,0,0,0-.24,1.86,4.63,4.63,0,0,0,.24,1.59,2.08,2.08,0,0,0,.67,1,1.5,1.5,0,0,0,1,.32,2.77,2.77,0,0,0,1.26-.41,5.1,5.1,0,0,0,1.26-1,6.68,6.68,0,0,0,1-1.47,8.14,8.14,0,0,0,.67-1.74,7.89,7.89,0,0,0,.23-1.86,4.84,4.84,0,0,0-.23-1.58A2.06,2.06,0,0,0,171.4,146.46Zm-.86,4.61a4.79,4.79,0,0,1-.32,1,3.44,3.44,0,0,1-.47.8,2.35,2.35,0,0,1-.61.54,1.06,1.06,0,0,1-.62.17.75.75,0,0,1-.48-.25,1.57,1.57,0,0,1-.31-.62,3.5,3.5,0,0,1-.11-1,5.37,5.37,0,0,1,.42-2.11,4.14,4.14,0,0,1,.48-.8,2.44,2.44,0,0,1,.62-.54,1.06,1.06,0,0,1,.61-.16.7.7,0,0,1,.47.24,1.53,1.53,0,0,1,.32.64,4,4,0,0,1,.11,1A5.6,5.6,0,0,1,170.54,151.07Zm18.51-65.13a1.5,1.5,0,0,0-1-.32,2.57,2.57,0,0,0-1.26.4,4.76,4.76,0,0,0-1.26,1,7,7,0,0,0-1,1.48,7.61,7.61,0,0,0-.66,1.74,7,7,0,0,0-.25,1.86,4.33,4.33,0,0,0,.25,1.58,2,2,0,0,0,.66,1,1.5,1.5,0,0,0,1,.32,2.68,2.68,0,0,0,1.26-.42,4.85,4.85,0,0,0,1.26-1,7.19,7.19,0,0,0,1-1.47,8.14,8.14,0,0,0,.67-1.74A7.89,7.89,0,0,0,190,88.5a4.9,4.9,0,0,0-.23-1.59A2.08,2.08,0,0,0,189.05,85.94Zm-.86,4.61a4.59,4.59,0,0,1-.32,1,3.66,3.66,0,0,1-.47.8,2.13,2.13,0,0,1-.61.53,1.08,1.08,0,0,1-.62.18.75.75,0,0,1-.48-.25,1.55,1.55,0,0,1-.31-.63,3.87,3.87,0,0,1-.11-1,5.7,5.7,0,0,1,.11-1.1,5.08,5.08,0,0,1,.31-1,4.14,4.14,0,0,1,.48-.8,2.1,2.1,0,0,1,.62-.54,1.07,1.07,0,0,1,.61-.17.71.71,0,0,1,.47.25,1.44,1.44,0,0,1,.32.63,4,4,0,0,1,.11,1A5.62,5.62,0,0,1,188.19,90.55Zm-1.9,19.06a3,3,0,0,1-.29.51c-.15.24-.33.49-.53.76s-.42.52-.63.75a2.28,2.28,0,0,1-.54.47v1.77a2.72,2.72,0,0,0,.53-.41,6.57,6.57,0,0,0,.59-.59c.18-.21.36-.42.52-.63a3.46,3.46,0,0,0,.35-.55V116l-1.74,1v1.71l5-2.87v-1.72L188,115v-6.37Zm2.76,10.73a1.5,1.5,0,0,0-1-.32,2.57,2.57,0,0,0-1.26.4,4.76,4.76,0,0,0-1.26,1,7,7,0,0,0-1,1.48,7.44,7.44,0,0,0-.66,1.74,7,7,0,0,0-.25,1.86,4.33,4.33,0,0,0,.25,1.58,2,2,0,0,0,.66,1,1.5,1.5,0,0,0,1,.32,2.68,2.68,0,0,0,1.26-.42,4.85,4.85,0,0,0,1.26-1,7.19,7.19,0,0,0,1-1.47,8.14,8.14,0,0,0,.67-1.74,7.89,7.89,0,0,0,.23-1.86,4.9,4.9,0,0,0-.23-1.59A2.08,2.08,0,0,0,189.05,120.34Zm-.86,4.61a4.59,4.59,0,0,1-.32,1,3.66,3.66,0,0,1-.47.8,2.13,2.13,0,0,1-.61.53,1.08,1.08,0,0,1-.62.18.75.75,0,0,1-.48-.25,1.55,1.55,0,0,1-.31-.63,3.87,3.87,0,0,1-.11-1,5.7,5.7,0,0,1,.11-1.1,5.08,5.08,0,0,1,.31-1,4.14,4.14,0,0,1,.48-.8,2.1,2.1,0,0,1,.62-.54,1.07,1.07,0,0,1,.61-.17.71.71,0,0,1,.47.25,1.44,1.44,0,0,1,.32.63,4,4,0,0,1,.11,1A5.62,5.62,0,0,1,188.19,125Zm-16.79,33a1.5,1.5,0,0,0-1-.32,2.57,2.57,0,0,0-1.26.4,4.76,4.76,0,0,0-1.26,1.05,7,7,0,0,0-1,1.48,7.94,7.94,0,0,0-.67,1.74,7.42,7.42,0,0,0-.24,1.86,4.57,4.57,0,0,0,.24,1.58,2.11,2.11,0,0,0,.67,1,1.5,1.5,0,0,0,1,.32,2.68,2.68,0,0,0,1.26-.42,4.85,4.85,0,0,0,1.26-1,7.19,7.19,0,0,0,1-1.47,8,8,0,0,0,.67-1.75,7.75,7.75,0,0,0,.23-1.85,4.9,4.9,0,0,0-.23-1.59A2,2,0,0,0,171.4,157.93Zm-.86,4.61a5.21,5.21,0,0,1-.32,1,3.66,3.66,0,0,1-.47.8,2.3,2.3,0,0,1-.61.53,1.16,1.16,0,0,1-.62.18.75.75,0,0,1-.48-.25,1.55,1.55,0,0,1-.31-.63,3.45,3.45,0,0,1-.11-1,5,5,0,0,1,.11-1.1,5.08,5.08,0,0,1,.31-1,4.14,4.14,0,0,1,.48-.8,2.1,2.1,0,0,1,.62-.54,1.07,1.07,0,0,1,.61-.17.71.71,0,0,1,.47.25,1.55,1.55,0,0,1,.32.63,4,4,0,0,1,.11,1A5.62,5.62,0,0,1,170.54,162.54Zm-9.15-30.69a1.52,1.52,0,0,0-1-.31,2.5,2.5,0,0,0-1.25.4,5,5,0,0,0-1.27,1.05,7.39,7.39,0,0,0-1,1.48,8.24,8.24,0,0,0-.66,1.74,7.42,7.42,0,0,0-.24,1.86,4.57,4.57,0,0,0,.24,1.58,2.18,2.18,0,0,0,.66,1,1.51,1.51,0,0,0,1,.31,2.55,2.55,0,0,0,1.27-.41,5.2,5.2,0,0,0,1.25-1,7,7,0,0,0,1-1.48,8.24,8.24,0,0,0,.66-1.74,7.3,7.3,0,0,0,.24-1.86,4.57,4.57,0,0,0-.24-1.58A2.18,2.18,0,0,0,161.39,131.85Zm-.87,4.62a4.57,4.57,0,0,1-.31,1,3.33,3.33,0,0,1-.48.8,2.29,2.29,0,0,1-.6.53,1.06,1.06,0,0,1-.62.17.66.66,0,0,1-.48-.24,1.55,1.55,0,0,1-.32-.63,3.87,3.87,0,0,1-.11-1,5.8,5.8,0,0,1,.11-1.11,5,5,0,0,1,.32-1,3.33,3.33,0,0,1,.48-.8,2.1,2.1,0,0,1,.62-.54,1,1,0,0,1,.6-.17.71.71,0,0,1,.48.25,1.43,1.43,0,0,1,.31.63,3.58,3.58,0,0,1,.11,1A5,5,0,0,1,160.52,136.47Zm.87,52.72a1.53,1.53,0,0,0-1-.32,2.61,2.61,0,0,0-1.25.4,5,5,0,0,0-1.27,1,7.68,7.68,0,0,0-1,1.48,8.67,8.67,0,0,0-.66,1.74,7.42,7.42,0,0,0-.24,1.86,4.57,4.57,0,0,0,.24,1.58,2.12,2.12,0,0,0,.66,1,1.52,1.52,0,0,0,1,.32,2.77,2.77,0,0,0,1.27-.41,5.25,5.25,0,0,0,1.25-1.05,7.23,7.23,0,0,0,1-1.47,8.67,8.67,0,0,0,.66-1.74,7.42,7.42,0,0,0,.24-1.86,4.63,4.63,0,0,0-.24-1.59A2.14,2.14,0,0,0,161.39,189.19Zm-.87,4.61a4.57,4.57,0,0,1-.31,1,3.33,3.33,0,0,1-.48.8,2,2,0,0,1-.6.53,1.08,1.08,0,0,1-.62.18.71.71,0,0,1-.48-.25,1.55,1.55,0,0,1-.32-.63,3.87,3.87,0,0,1-.11-1,5.7,5.7,0,0,1,.11-1.1,5.09,5.09,0,0,1,.32-1,3.33,3.33,0,0,1,.48-.8,2.1,2.1,0,0,1,.62-.54,1.06,1.06,0,0,1,.6-.17.71.71,0,0,1,.48.25,1.42,1.42,0,0,1,.31.64,3.5,3.5,0,0,1,.11,1A5,5,0,0,1,160.52,193.8Zm.87-16.08a1.53,1.53,0,0,0-1-.32,2.61,2.61,0,0,0-1.25.4,5.23,5.23,0,0,0-1.27,1.06,7.61,7.61,0,0,0-1,1.47,8.54,8.54,0,0,0-.66,1.75,7.3,7.3,0,0,0-.24,1.86,4.57,4.57,0,0,0,.24,1.58,2.18,2.18,0,0,0,.66,1,1.57,1.57,0,0,0,1,.31,2.77,2.77,0,0,0,1.27-.41,5.25,5.25,0,0,0,1.25-1.05,6.71,6.71,0,0,0,1-1.47,8.45,8.45,0,0,0,.66-1.74,7.42,7.42,0,0,0,.24-1.86,4.57,4.57,0,0,0-.24-1.58A2.18,2.18,0,0,0,161.39,177.72Zm-.87,4.62a4.32,4.32,0,0,1-.31,1,3.15,3.15,0,0,1-.48.8,2.17,2.17,0,0,1-.6.54,1.06,1.06,0,0,1-.62.17.71.71,0,0,1-.48-.25,1.57,1.57,0,0,1-.32-.62,3.93,3.93,0,0,1-.11-1,5.8,5.8,0,0,1,.11-1.11,4.79,4.79,0,0,1,.32-1,3,3,0,0,1,.48-.8,2.3,2.3,0,0,1,.62-.55,1,1,0,0,1,.6-.16.67.67,0,0,1,.48.25,1.33,1.33,0,0,1,.31.63,3.53,3.53,0,0,1,.11,1A5.07,5.07,0,0,1,160.52,182.34Zm.87-16.09a1.52,1.52,0,0,0-1-.31,2.5,2.5,0,0,0-1.25.4,5,5,0,0,0-1.27,1,7.39,7.39,0,0,0-1,1.48,8.24,8.24,0,0,0-.66,1.74,7.42,7.42,0,0,0-.24,1.86,4.57,4.57,0,0,0,.24,1.58,2.18,2.18,0,0,0,.66,1,1.51,1.51,0,0,0,1,.31,2.55,2.55,0,0,0,1.27-.41,5.2,5.2,0,0,0,1.25-1,7.23,7.23,0,0,0,1-1.47,8.54,8.54,0,0,0,.66-1.75,7.3,7.3,0,0,0,.24-1.86,4.57,4.57,0,0,0-.24-1.58A2.18,2.18,0,0,0,161.39,166.25Zm-.87,4.62a4.57,4.57,0,0,1-.31,1,3.33,3.33,0,0,1-.48.8,2.12,2.12,0,0,1-.6.53,1.06,1.06,0,0,1-.62.17.66.66,0,0,1-.48-.24,1.55,1.55,0,0,1-.32-.63,3.87,3.87,0,0,1-.11-1,5.8,5.8,0,0,1,.11-1.11,5,5,0,0,1,.32-1,3.15,3.15,0,0,1,.48-.8,2.1,2.1,0,0,1,.62-.54,1,1,0,0,1,.6-.17.71.71,0,0,1,.48.25,1.43,1.43,0,0,1,.31.63,3.58,3.58,0,0,1,.11,1A5,5,0,0,1,160.52,170.87ZM189.05,97.4a1.56,1.56,0,0,0-1-.32,2.67,2.67,0,0,0-1.26.4,5,5,0,0,0-1.26,1.06,7,7,0,0,0-1,1.48,7.28,7.28,0,0,0-.66,1.74,6.89,6.89,0,0,0-.25,1.86,4.33,4.33,0,0,0,.25,1.58,2,2,0,0,0,.66,1,1.49,1.49,0,0,0,1,.31,2.65,2.65,0,0,0,1.26-.41,5.28,5.28,0,0,0,1.26-1,7,7,0,0,0,1-1.48,7.66,7.66,0,0,0,.9-3.6,4.84,4.84,0,0,0-.23-1.58A2.11,2.11,0,0,0,189.05,97.4Zm-.86,4.62a4.33,4.33,0,0,1-.32,1,3.25,3.25,0,0,1-.47.8,2.35,2.35,0,0,1-.61.54,1.06,1.06,0,0,1-.62.17.71.71,0,0,1-.48-.25,1.44,1.44,0,0,1-.31-.62,3.87,3.87,0,0,1-.11-1,5.8,5.8,0,0,1,.11-1.11,4.78,4.78,0,0,1,.31-1,3.85,3.85,0,0,1,.48-.8,2.1,2.1,0,0,1,.62-.54,1,1,0,0,1,.61-.17.71.71,0,0,1,.47.25,1.44,1.44,0,0,1,.32.63,4,4,0,0,1,.11,1A5.7,5.7,0,0,1,188.19,102Zm-29.57,53.51a2.73,2.73,0,0,1-.29.51c-.15.23-.33.49-.53.75a9.51,9.51,0,0,1-.62.75,2.88,2.88,0,0,1-.54.48v1.77a3.65,3.65,0,0,0,.53-.41,8.11,8.11,0,0,0,.58-.59c.19-.21.36-.42.52-.63a3.21,3.21,0,0,0,.35-.55v4.29l-1.74,1v1.71l5-2.88V160l-1.56.9v-6.37Zm2.77-12.21a1.53,1.53,0,0,0-1-.32,2.61,2.61,0,0,0-1.25.4,5.23,5.23,0,0,0-1.27,1.06,7.61,7.61,0,0,0-1,1.47,8.54,8.54,0,0,0-.66,1.75,7.3,7.3,0,0,0-.24,1.86,4.57,4.57,0,0,0,.24,1.58,2.18,2.18,0,0,0,.66,1,1.57,1.57,0,0,0,1,.31,2.77,2.77,0,0,0,1.27-.41,5.25,5.25,0,0,0,1.25-1.05,6.71,6.71,0,0,0,1-1.47,8.45,8.45,0,0,0,.66-1.74,7.42,7.42,0,0,0,.24-1.86,4.57,4.57,0,0,0-.24-1.58A2.18,2.18,0,0,0,161.39,143.32Zm-.87,4.61a4.25,4.25,0,0,1-.31,1,3.15,3.15,0,0,1-.48.8,2.17,2.17,0,0,1-.6.54,1.06,1.06,0,0,1-.62.17.71.71,0,0,1-.48-.25,1.57,1.57,0,0,1-.32-.62,3.93,3.93,0,0,1-.11-1,5.8,5.8,0,0,1,.11-1.11,4.79,4.79,0,0,1,.32-1,3,3,0,0,1,.48-.8,2.3,2.3,0,0,1,.62-.55,1,1,0,0,1,.6-.16.67.67,0,0,1,.48.25,1.38,1.38,0,0,1,.31.63,3.53,3.53,0,0,1,.11,1A4.92,4.92,0,0,1,160.52,147.93ZM180.19,106a1.55,1.55,0,0,0-1-.32,2.67,2.67,0,0,0-1.26.4,5,5,0,0,0-1.26,1.06,6.92,6.92,0,0,0-1,1.47,8.67,8.67,0,0,0-.66,1.74,7.42,7.42,0,0,0-.24,1.86,4.63,4.63,0,0,0,.24,1.59,2.14,2.14,0,0,0,.66,1,1.5,1.5,0,0,0,1,.32,2.73,2.73,0,0,0,1.26-.41,5.1,5.1,0,0,0,1.26-1,7.35,7.35,0,0,0,1-1.47,8.67,8.67,0,0,0,.66-1.74,7.42,7.42,0,0,0,.24-1.86,4.57,4.57,0,0,0-.24-1.58A2.12,2.12,0,0,0,180.19,106Zm-.87,4.61a4.78,4.78,0,0,1-.31,1,3.85,3.85,0,0,1-.48.8,2,2,0,0,1-.61.53,1,1,0,0,1-.62.18.71.71,0,0,1-.47-.25,1.55,1.55,0,0,1-.32-.63,3.81,3.81,0,0,1-.11-1,5.78,5.78,0,0,1,.11-1.1,5.09,5.09,0,0,1,.32-1,3.66,3.66,0,0,1,.47-.8,2.23,2.23,0,0,1,.62-.54,1,1,0,0,1,.61-.16.7.7,0,0,1,.48.24,1.53,1.53,0,0,1,.31.64,3.5,3.5,0,0,1,.11,1A5,5,0,0,1,179.32,110.64Zm.87,41.25a1.6,1.6,0,0,0-1-.31,2.57,2.57,0,0,0-1.26.4,4.93,4.93,0,0,0-1.26,1.05,7,7,0,0,0-1,1.48,8.24,8.24,0,0,0-.66,1.74,7.42,7.42,0,0,0-.24,1.86,4.57,4.57,0,0,0,.24,1.58,2.18,2.18,0,0,0,.66,1,1.49,1.49,0,0,0,1,.31,2.52,2.52,0,0,0,1.26-.41,5.05,5.05,0,0,0,1.26-1,7.65,7.65,0,0,0,1-1.47,8.54,8.54,0,0,0,.66-1.75,7.3,7.3,0,0,0,.24-1.86,4.57,4.57,0,0,0-.24-1.58A2.18,2.18,0,0,0,180.19,151.89Zm-.87,4.62a5.2,5.2,0,0,1-.31,1,4.14,4.14,0,0,1-.48.8,2.16,2.16,0,0,1-.61.53,1,1,0,0,1-.62.17.66.66,0,0,1-.47-.24,1.55,1.55,0,0,1-.32-.63,3.87,3.87,0,0,1-.11-1,5.8,5.8,0,0,1,.11-1.11,5,5,0,0,1,.32-1,3.66,3.66,0,0,1,.47-.8,2.23,2.23,0,0,1,.62-.54,1,1,0,0,1,.61-.17.75.75,0,0,1,.48.25,1.55,1.55,0,0,1,.31.63,3.58,3.58,0,0,1,.11,1A5,5,0,0,1,179.32,156.51Zm.87-16.08a1.55,1.55,0,0,0-1-.32,2.67,2.67,0,0,0-1.26.4,5,5,0,0,0-1.26,1.06,6.92,6.92,0,0,0-1,1.47,8.67,8.67,0,0,0-.66,1.74,7.42,7.42,0,0,0-.24,1.86,4.53,4.53,0,0,0,.24,1.58,2.12,2.12,0,0,0,.66,1,1.5,1.5,0,0,0,1,.32,2.73,2.73,0,0,0,1.26-.41,5.1,5.1,0,0,0,1.26-1.05,7.08,7.08,0,0,0,1-1.47,8.67,8.67,0,0,0,.66-1.74,7.42,7.42,0,0,0,.24-1.86,4.57,4.57,0,0,0-.24-1.58A2.12,2.12,0,0,0,180.19,140.43Zm-.87,4.61a4.78,4.78,0,0,1-.31,1,3.85,3.85,0,0,1-.48.8,2,2,0,0,1-.61.53,1.06,1.06,0,0,1-.62.18.71.71,0,0,1-.47-.25,1.55,1.55,0,0,1-.32-.63,3.81,3.81,0,0,1-.11-1,5.78,5.78,0,0,1,.11-1.1,5.09,5.09,0,0,1,.32-1,3.66,3.66,0,0,1,.47-.8,2.23,2.23,0,0,1,.62-.54,1,1,0,0,1,.61-.16.7.7,0,0,1,.48.24,1.53,1.53,0,0,1,.31.64,3.5,3.5,0,0,1,.11,1A5,5,0,0,1,179.32,145Zm.87-27.55a1.6,1.6,0,0,0-1-.31,2.57,2.57,0,0,0-1.26.4,4.93,4.93,0,0,0-1.26,1,7,7,0,0,0-1,1.48,8.24,8.24,0,0,0-.66,1.74,7.42,7.42,0,0,0-.24,1.86,4.57,4.57,0,0,0,.24,1.58,2.18,2.18,0,0,0,.66,1,1.49,1.49,0,0,0,1,.31,2.52,2.52,0,0,0,1.26-.41,5.05,5.05,0,0,0,1.26-1,7.65,7.65,0,0,0,1-1.47,8.54,8.54,0,0,0,.66-1.75,7.3,7.3,0,0,0,.24-1.86,4.57,4.57,0,0,0-.24-1.58A2.18,2.18,0,0,0,180.19,117.49Zm-.87,4.62a5.2,5.2,0,0,1-.31,1,4.14,4.14,0,0,1-.48.8,2.16,2.16,0,0,1-.61.53,1,1,0,0,1-.62.17.66.66,0,0,1-.47-.24,1.55,1.55,0,0,1-.32-.63,3.87,3.87,0,0,1-.11-1,5.62,5.62,0,0,1,.11-1.1,4.88,4.88,0,0,1,.32-1,3.66,3.66,0,0,1,.47-.8,2.23,2.23,0,0,1,.62-.54,1,1,0,0,1,.61-.17.75.75,0,0,1,.48.25,1.55,1.55,0,0,1,.31.63,3.58,3.58,0,0,1,.11,1A5,5,0,0,1,179.32,122.11Zm.87,41.25a1.6,1.6,0,0,0-1-.32,2.67,2.67,0,0,0-1.26.4,5.19,5.19,0,0,0-1.26,1.06,7.19,7.19,0,0,0-1,1.47,8.54,8.54,0,0,0-.66,1.75,7.3,7.3,0,0,0-.24,1.86,4.57,4.57,0,0,0,.24,1.58,2.18,2.18,0,0,0,.66,1,1.49,1.49,0,0,0,1,.31,2.73,2.73,0,0,0,1.26-.41,5.28,5.28,0,0,0,1.26-1,7.43,7.43,0,0,0,1-1.48,8.24,8.24,0,0,0,.66-1.74,7.42,7.42,0,0,0,.24-1.86,4.57,4.57,0,0,0-.24-1.58A2.18,2.18,0,0,0,180.19,163.36Zm-.87,4.62a4.88,4.88,0,0,1-.31,1,3.85,3.85,0,0,1-.48.8,2.2,2.2,0,0,1-.61.54,1,1,0,0,1-.62.17.71.71,0,0,1-.47-.25,1.51,1.51,0,0,1-.32-.62,3.93,3.93,0,0,1-.11-1,5.8,5.8,0,0,1,.11-1.11,4.79,4.79,0,0,1,.32-1,3.25,3.25,0,0,1,.47-.8,2.46,2.46,0,0,1,.62-.55,1.07,1.07,0,0,1,.61-.16.71.71,0,0,1,.48.25,1.48,1.48,0,0,1,.31.63,3.53,3.53,0,0,1,.11,1A5.07,5.07,0,0,1,179.32,168Zm9.73-36.18a1.56,1.56,0,0,0-1-.32,2.67,2.67,0,0,0-1.26.4,5,5,0,0,0-1.26,1.06,7,7,0,0,0-1,1.48,7.28,7.28,0,0,0-.66,1.74,6.89,6.89,0,0,0-.25,1.86,4.33,4.33,0,0,0,.25,1.58,2,2,0,0,0,.66,1,1.49,1.49,0,0,0,1,.31,2.65,2.65,0,0,0,1.26-.41,5.28,5.28,0,0,0,1.26-1,7,7,0,0,0,1-1.48,7.66,7.66,0,0,0,.9-3.6,4.84,4.84,0,0,0-.23-1.58A2.11,2.11,0,0,0,189.05,131.8Zm-.86,4.62a4.33,4.33,0,0,1-.32,1,3.25,3.25,0,0,1-.47.8,2.35,2.35,0,0,1-.61.54,1.06,1.06,0,0,1-.62.17.71.71,0,0,1-.48-.25,1.44,1.44,0,0,1-.31-.62,3.87,3.87,0,0,1-.11-1,5.8,5.8,0,0,1,.11-1.11,4.78,4.78,0,0,1,.31-1,3.85,3.85,0,0,1,.48-.8,2.1,2.1,0,0,1,.62-.54,1,1,0,0,1,.61-.17.71.71,0,0,1,.47.25,1.44,1.44,0,0,1,.32.63,4,4,0,0,1,.11,1A5.7,5.7,0,0,1,188.19,136.42Zm-19.55-12.15a4.13,4.13,0,0,1-.29.51q-.22.34-.54.75a9.51,9.51,0,0,1-.62.75,2.64,2.64,0,0,1-.54.48v1.77a3.65,3.65,0,0,0,.53-.41,8.21,8.21,0,0,0,.59-.59c.18-.21.36-.42.52-.63a4,4,0,0,0,.35-.55v4.29l-1.74,1v1.72l5-2.88v-1.71l-1.56.9v-6.38ZM171.4,135a1.56,1.56,0,0,0-1-.32,2.67,2.67,0,0,0-1.26.4,5,5,0,0,0-1.26,1.06,7,7,0,0,0-1,1.48,7.75,7.75,0,0,0-.67,1.74,7.3,7.3,0,0,0-.24,1.86,4.57,4.57,0,0,0,.24,1.58,2.11,2.11,0,0,0,.67,1,1.49,1.49,0,0,0,1,.31,2.65,2.65,0,0,0,1.26-.41,5.28,5.28,0,0,0,1.26-1,7,7,0,0,0,1-1.48,7.66,7.66,0,0,0,.9-3.6,4.84,4.84,0,0,0-.23-1.58A2.11,2.11,0,0,0,171.4,135Zm-.86,4.62a5.21,5.21,0,0,1-.32,1,3.66,3.66,0,0,1-.47.8,2.5,2.5,0,0,1-.61.53,1.06,1.06,0,0,1-.62.17.71.71,0,0,1-.48-.25,1.44,1.44,0,0,1-.31-.62,3.45,3.45,0,0,1-.11-1,5.1,5.1,0,0,1,.11-1.11,4.78,4.78,0,0,1,.31-1,3.85,3.85,0,0,1,.48-.8,2.1,2.1,0,0,1,.62-.54,1,1,0,0,1,.61-.17.71.71,0,0,1,.47.25,1.55,1.55,0,0,1,.32.63,4,4,0,0,1,.11,1A5.7,5.7,0,0,1,170.54,139.61Zm.86-39a1.56,1.56,0,0,0-1-.32,2.67,2.67,0,0,0-1.26.4,5,5,0,0,0-1.26,1.06,7,7,0,0,0-1,1.48,7.75,7.75,0,0,0-.67,1.74,7.3,7.3,0,0,0-.24,1.86,4.57,4.57,0,0,0,.24,1.58,2.11,2.11,0,0,0,.67,1,1.49,1.49,0,0,0,1,.31,2.65,2.65,0,0,0,1.26-.41,5.28,5.28,0,0,0,1.26-1,7,7,0,0,0,1-1.48,7.66,7.66,0,0,0,.9-3.6,4.84,4.84,0,0,0-.23-1.58A2.11,2.11,0,0,0,171.4,100.59Zm-.86,4.62a4.89,4.89,0,0,1-.32,1,3.25,3.25,0,0,1-.47.8,2.35,2.35,0,0,1-.61.54,1.06,1.06,0,0,1-.62.17.71.71,0,0,1-.48-.25,1.44,1.44,0,0,1-.31-.62,3.45,3.45,0,0,1-.11-1,5.1,5.1,0,0,1,.11-1.11,4.78,4.78,0,0,1,.31-1,3.85,3.85,0,0,1,.48-.8,2.1,2.1,0,0,1,.62-.54,1,1,0,0,1,.61-.17.71.71,0,0,1,.47.25,1.55,1.55,0,0,1,.32.63,4,4,0,0,1,.11,1A5.7,5.7,0,0,1,170.54,105.21Zm.86,6.85a1.5,1.5,0,0,0-1-.32,2.67,2.67,0,0,0-1.26.4,5,5,0,0,0-1.26,1.06,7.19,7.19,0,0,0-1,1.47,8.14,8.14,0,0,0-.67,1.74,7.42,7.42,0,0,0-.24,1.86,4.63,4.63,0,0,0,.24,1.59,2.08,2.08,0,0,0,.67,1,1.5,1.5,0,0,0,1,.32,2.77,2.77,0,0,0,1.26-.41,5.1,5.1,0,0,0,1.26-1,6.68,6.68,0,0,0,1-1.47,8.14,8.14,0,0,0,.67-1.74,7.89,7.89,0,0,0,.23-1.86,4.84,4.84,0,0,0-.23-1.58A2.06,2.06,0,0,0,171.4,112.06Zm-.86,4.61a4.79,4.79,0,0,1-.32,1,3.44,3.44,0,0,1-.47.8,2.35,2.35,0,0,1-.61.54,1.06,1.06,0,0,1-.62.17.75.75,0,0,1-.48-.25,1.57,1.57,0,0,1-.31-.62,3.5,3.5,0,0,1-.11-1,5.37,5.37,0,0,1,.42-2.11,4.14,4.14,0,0,1,.48-.8,2.44,2.44,0,0,1,.62-.54,1.06,1.06,0,0,1,.61-.16.7.7,0,0,1,.47.24,1.53,1.53,0,0,1,.32.64,4,4,0,0,1,.11,1A5.6,5.6,0,0,1,170.54,116.67Zm18.51,26.6a1.5,1.5,0,0,0-1-.32,2.67,2.67,0,0,0-1.26.4,4.81,4.81,0,0,0-1.26,1.06,7.19,7.19,0,0,0-1,1.47,7.61,7.61,0,0,0-.66,1.74,7,7,0,0,0-.25,1.86,4.39,4.39,0,0,0,.25,1.59,2,2,0,0,0,.66,1,1.5,1.5,0,0,0,1,.32,2.77,2.77,0,0,0,1.26-.41,5.1,5.1,0,0,0,1.26-1,6.68,6.68,0,0,0,1-1.47,8.14,8.14,0,0,0,.67-1.74,7.89,7.89,0,0,0,.23-1.86,4.84,4.84,0,0,0-.23-1.58A2.06,2.06,0,0,0,189.05,143.27Zm-.86,4.61a4.26,4.26,0,0,1-.32,1,3.44,3.44,0,0,1-.47.8,2.35,2.35,0,0,1-.61.54,1.06,1.06,0,0,1-.62.17.75.75,0,0,1-.48-.25,1.57,1.57,0,0,1-.31-.62,4,4,0,0,1-.11-1,5.78,5.78,0,0,1,.11-1.1,5.08,5.08,0,0,1,.31-1,4.14,4.14,0,0,1,.48-.8,2.44,2.44,0,0,1,.62-.54,1,1,0,0,1,.61-.16.7.7,0,0,1,.47.24,1.43,1.43,0,0,1,.32.64,4,4,0,0,1,.11,1A5.6,5.6,0,0,1,188.19,147.88Zm-46.36-12.6a3,3,0,0,1-.29.51c-.15.23-.33.49-.53.76s-.42.52-.63.75a2.54,2.54,0,0,1-.54.47v1.77a3.07,3.07,0,0,0,.54-.41c.19-.18.39-.38.58-.59s.36-.42.52-.63a3.46,3.46,0,0,0,.35-.55v4.29l-1.74,1v1.71l5-2.87v-1.72l-1.56.9v-6.37Zm2.76,22.19a1.56,1.56,0,0,0-1-.32,2.67,2.67,0,0,0-1.26.4,5,5,0,0,0-1.26,1.06,7,7,0,0,0-1,1.48,7.73,7.73,0,0,0-.66,1.74,7.3,7.3,0,0,0-.24,1.86,4.57,4.57,0,0,0,.24,1.58,2.1,2.1,0,0,0,.66,1,1.49,1.49,0,0,0,1,.31,2.77,2.77,0,0,0,1.26-.41,5.28,5.28,0,0,0,1.26-1,7,7,0,0,0,1-1.48,7.75,7.75,0,0,0,.67-1.74,7.42,7.42,0,0,0,.24-1.86,4.57,4.57,0,0,0-.24-1.58A2.11,2.11,0,0,0,144.59,157.47Zm-.86,4.62a4.88,4.88,0,0,1-.31,1,3.85,3.85,0,0,1-.48.8,2.35,2.35,0,0,1-.61.54,1,1,0,0,1-.62.17.71.71,0,0,1-.48-.25,1.44,1.44,0,0,1-.31-.62,3.93,3.93,0,0,1-.11-1,5.8,5.8,0,0,1,.11-1.11,4.78,4.78,0,0,1,.31-1,3.61,3.61,0,0,1,.48-.8,2.46,2.46,0,0,1,.62-.55,1.06,1.06,0,0,1,.61-.16.71.71,0,0,1,.48.25,1.48,1.48,0,0,1,.31.63,4,4,0,0,1,.11,1A5.7,5.7,0,0,1,143.73,162.09ZM198,104a1.55,1.55,0,0,0-1-.32,2.57,2.57,0,0,0-1.26.4,4.93,4.93,0,0,0-1.26,1.05,7,7,0,0,0-1,1.48,8.24,8.24,0,0,0-.66,1.74,7.42,7.42,0,0,0-.24,1.86,4.57,4.57,0,0,0,.24,1.58,2.18,2.18,0,0,0,.66,1,1.5,1.5,0,0,0,1,.32,2.64,2.64,0,0,0,1.26-.42,5.05,5.05,0,0,0,1.26-1,7.65,7.65,0,0,0,1-1.47,8.54,8.54,0,0,0,.66-1.75,7.28,7.28,0,0,0,.24-1.85,4.59,4.59,0,0,0-.24-1.59A2.09,2.09,0,0,0,198,104Zm-.87,4.61a5.2,5.2,0,0,1-.31,1,4.14,4.14,0,0,1-.48.8,2.16,2.16,0,0,1-.61.53,1.14,1.14,0,0,1-.62.18.71.71,0,0,1-.47-.25,1.55,1.55,0,0,1-.32-.63,3.87,3.87,0,0,1-.11-1,5.7,5.7,0,0,1,.11-1.1,4.88,4.88,0,0,1,.32-1,3.66,3.66,0,0,1,.47-.8,2.23,2.23,0,0,1,.62-.54,1.09,1.09,0,0,1,.61-.17.75.75,0,0,1,.48.25,1.55,1.55,0,0,1,.31.63,3.58,3.58,0,0,1,.11,1A5,5,0,0,1,197.11,108.63Zm8.74,54.89a1.55,1.55,0,0,0-1-.32,2.67,2.67,0,0,0-1.26.4,5,5,0,0,0-1.26,1.06,7.31,7.31,0,0,0-1,1.47,8.67,8.67,0,0,0-.66,1.74,7.42,7.42,0,0,0-.24,1.86,4.53,4.53,0,0,0,.24,1.58,2.12,2.12,0,0,0,.66,1,1.52,1.52,0,0,0,1,.32,2.73,2.73,0,0,0,1.26-.41,5.1,5.1,0,0,0,1.26-1,7.35,7.35,0,0,0,1-1.47,8.67,8.67,0,0,0,.66-1.74,7.42,7.42,0,0,0,.24-1.86,4.53,4.53,0,0,0-.24-1.58A2.12,2.12,0,0,0,205.85,163.52Zm-.87,4.61a4.25,4.25,0,0,1-.31,1,3.46,3.46,0,0,1-.48.8,1.9,1.9,0,0,1-.61.53,1,1,0,0,1-.62.18.71.71,0,0,1-.47-.25,1.55,1.55,0,0,1-.32-.63,3.81,3.81,0,0,1-.11-1,5.78,5.78,0,0,1,.11-1.1,5.09,5.09,0,0,1,.32-1,3.66,3.66,0,0,1,.47-.8,2.38,2.38,0,0,1,.62-.54,1,1,0,0,1,.61-.16.68.68,0,0,1,.48.24,1.42,1.42,0,0,1,.31.64,3.5,3.5,0,0,1,.11,1A5,5,0,0,1,205,168.13ZM144.59,146a1.5,1.5,0,0,0-1-.32,2.57,2.57,0,0,0-1.26.4,4.76,4.76,0,0,0-1.26,1,7,7,0,0,0-1,1.48,7.73,7.73,0,0,0-.66,1.74,7.42,7.42,0,0,0-.24,1.86,4.57,4.57,0,0,0,.24,1.58,2.1,2.1,0,0,0,.66,1,1.56,1.56,0,0,0,1,.32,2.68,2.68,0,0,0,1.26-.42,5.05,5.05,0,0,0,1.26-1,7.19,7.19,0,0,0,1-1.47,8,8,0,0,0,.67-1.75,7.28,7.28,0,0,0,.24-1.85,4.59,4.59,0,0,0-.24-1.59A2,2,0,0,0,144.59,146Zm-.86,4.61a5.2,5.2,0,0,1-.31,1,4.14,4.14,0,0,1-.48.8,2.3,2.3,0,0,1-.61.53,1.14,1.14,0,0,1-.62.18.75.75,0,0,1-.48-.25,1.55,1.55,0,0,1-.31-.63,3.87,3.87,0,0,1-.11-1,5.7,5.7,0,0,1,.11-1.1,4.88,4.88,0,0,1,.31-1,4.14,4.14,0,0,1,.48-.8,2.23,2.23,0,0,1,.62-.54,1,1,0,0,1,.61-.17.75.75,0,0,1,.48.25,1.55,1.55,0,0,1,.31.63,4,4,0,0,1,.11,1A5.62,5.62,0,0,1,143.73,150.62Zm.86,18.32a1.5,1.5,0,0,0-1-.32,2.67,2.67,0,0,0-1.26.4,5,5,0,0,0-1.26,1,7.26,7.26,0,0,0-1,1.48,8.11,8.11,0,0,0-.66,1.74,7.42,7.42,0,0,0-.24,1.86,4.53,4.53,0,0,0,.24,1.58,2.05,2.05,0,0,0,.66,1,1.5,1.5,0,0,0,1,.32,2.77,2.77,0,0,0,1.26-.41,5.1,5.1,0,0,0,1.26-1.05,6.92,6.92,0,0,0,1-1.47,8.14,8.14,0,0,0,.67-1.74,7.42,7.42,0,0,0,.24-1.86,4.63,4.63,0,0,0-.24-1.59A2.08,2.08,0,0,0,144.59,168.94Zm-.86,4.61a4.78,4.78,0,0,1-.31,1,4.14,4.14,0,0,1-.48.8,2.13,2.13,0,0,1-.61.53,1.06,1.06,0,0,1-.62.18.75.75,0,0,1-.48-.25,1.55,1.55,0,0,1-.31-.63,3.87,3.87,0,0,1-.11-1,5.78,5.78,0,0,1,.11-1.1,5.08,5.08,0,0,1,.31-1,4.14,4.14,0,0,1,.48-.8,2.23,2.23,0,0,1,.62-.54,1,1,0,0,1,.61-.16.7.7,0,0,1,.48.24,1.53,1.53,0,0,1,.31.64,3.93,3.93,0,0,1,.11,1A5.62,5.62,0,0,1,143.73,173.55Zm9.79-55.33a1.55,1.55,0,0,0-1-.32,2.67,2.67,0,0,0-1.26.4,5.14,5.14,0,0,0-1.26,1,7.26,7.26,0,0,0-1,1.48,8.67,8.67,0,0,0-.66,1.74,7.42,7.42,0,0,0-.24,1.86,4.53,4.53,0,0,0,.24,1.58,2.12,2.12,0,0,0,.66,1,1.5,1.5,0,0,0,1,.32,2.73,2.73,0,0,0,1.26-.41,5.1,5.1,0,0,0,1.26-1.05,7.35,7.35,0,0,0,1-1.47,8.67,8.67,0,0,0,.66-1.74,7.42,7.42,0,0,0,.24-1.86,4.63,4.63,0,0,0-.24-1.59A2.14,2.14,0,0,0,153.52,118.22Zm-.87,4.61a5.2,5.2,0,0,1-.31,1,4.14,4.14,0,0,1-.48.8,2,2,0,0,1-.61.53,1.06,1.06,0,0,1-.62.18.71.71,0,0,1-.47-.25,1.55,1.55,0,0,1-.32-.63,3.87,3.87,0,0,1-.11-1,5.78,5.78,0,0,1,.11-1.1,5.09,5.09,0,0,1,.32-1,3.66,3.66,0,0,1,.47-.8,2.23,2.23,0,0,1,.62-.54,1.09,1.09,0,0,1,.61-.17.75.75,0,0,1,.48.25,1.53,1.53,0,0,1,.31.64,3.5,3.5,0,0,1,.11,1A5,5,0,0,1,152.65,122.83ZM135.73,166.1a1.55,1.55,0,0,0-1-.32,2.67,2.67,0,0,0-1.26.4,4.93,4.93,0,0,0-1.26,1,7.39,7.39,0,0,0-1,1.48,8.67,8.67,0,0,0-.66,1.74,7.42,7.42,0,0,0-.24,1.86,4.57,4.57,0,0,0,.24,1.58,2.12,2.12,0,0,0,.66,1,1.52,1.52,0,0,0,1,.32,2.73,2.73,0,0,0,1.26-.41,5.1,5.1,0,0,0,1.26-1.05,7.65,7.65,0,0,0,1-1.47,8.67,8.67,0,0,0,.66-1.74,7.42,7.42,0,0,0,.24-1.86,4.63,4.63,0,0,0-.24-1.59A2.14,2.14,0,0,0,135.73,166.1Zm-.87,4.61a5.2,5.2,0,0,1-.31,1,3.69,3.69,0,0,1-.48.8,2,2,0,0,1-.61.53,1.06,1.06,0,0,1-.62.18.71.71,0,0,1-.47-.25,1.55,1.55,0,0,1-.32-.63,3.87,3.87,0,0,1-.11-1,5.7,5.7,0,0,1,.11-1.1,5.09,5.09,0,0,1,.32-1,3.66,3.66,0,0,1,.47-.8,2.23,2.23,0,0,1,.62-.54,1.09,1.09,0,0,1,.61-.17.73.73,0,0,1,.48.25,1.53,1.53,0,0,1,.31.64,3.5,3.5,0,0,1,.11,1A5,5,0,0,1,134.86,170.71ZM133,155.37a3,3,0,0,1-.29.51c-.15.24-.33.49-.53.76a9.58,9.58,0,0,1-.63.75,2.28,2.28,0,0,1-.54.47v1.77a3.08,3.08,0,0,0,.54-.4,8.28,8.28,0,0,0,.58-.6c.19-.21.36-.42.52-.63a2.86,2.86,0,0,0,.35-.55v4.29l-1.74,1v1.71l5-2.87v-1.72l-1.56.9V154.4Zm2.77-23.67a1.55,1.55,0,0,0-1-.32,2.67,2.67,0,0,0-1.26.4,4.93,4.93,0,0,0-1.26,1.05,7.39,7.39,0,0,0-1,1.48,8.67,8.67,0,0,0-.66,1.74,7.42,7.42,0,0,0-.24,1.86,4.57,4.57,0,0,0,.24,1.58,2.12,2.12,0,0,0,.66,1,1.52,1.52,0,0,0,1,.32,2.73,2.73,0,0,0,1.26-.41,5.1,5.1,0,0,0,1.26-1,7.65,7.65,0,0,0,1-1.47,8.67,8.67,0,0,0,.66-1.74,7.42,7.42,0,0,0,.24-1.86,4.63,4.63,0,0,0-.24-1.59A2.14,2.14,0,0,0,135.73,131.7Zm-.87,4.61a5.2,5.2,0,0,1-.31,1,3.69,3.69,0,0,1-.48.8,2,2,0,0,1-.61.53,1.06,1.06,0,0,1-.62.18.71.71,0,0,1-.47-.25,1.55,1.55,0,0,1-.32-.63,3.87,3.87,0,0,1-.11-1,5.7,5.7,0,0,1,.11-1.1,5.09,5.09,0,0,1,.32-1,3.66,3.66,0,0,1,.47-.8,2.23,2.23,0,0,1,.62-.54,1.09,1.09,0,0,1,.61-.17.73.73,0,0,1,.48.25,1.53,1.53,0,0,1,.31.64,3.5,3.5,0,0,1,.11,1A5,5,0,0,1,134.86,136.31Zm60.35-20.09a3,3,0,0,1-.29.51c-.15.24-.33.49-.53.76a9.58,9.58,0,0,1-.63.75,2.28,2.28,0,0,1-.54.47v1.77a2.65,2.65,0,0,0,.54-.4,8.11,8.11,0,0,0,.58-.59c.19-.22.36-.43.52-.64a2.86,2.86,0,0,0,.35-.55v4.29l-1.74,1v1.71l5-2.87v-1.72l-1.56.9v-6.37ZM198,92.55a1.55,1.55,0,0,0-1-.32,2.67,2.67,0,0,0-1.26.4,5,5,0,0,0-1.26,1.06,7.19,7.19,0,0,0-1,1.47,8.67,8.67,0,0,0-.66,1.74,7.42,7.42,0,0,0-.24,1.86,4.63,4.63,0,0,0,.24,1.59,2.14,2.14,0,0,0,.66,1,1.5,1.5,0,0,0,1,.32,2.73,2.73,0,0,0,1.26-.41,5.1,5.1,0,0,0,1.26-1,7.08,7.08,0,0,0,1-1.47,8.67,8.67,0,0,0,.66-1.74,7.42,7.42,0,0,0,.24-1.86,4.57,4.57,0,0,0-.24-1.58A2.12,2.12,0,0,0,198,92.55Zm-.87,4.61a4.78,4.78,0,0,1-.31,1,3.85,3.85,0,0,1-.48.8,2.2,2.2,0,0,1-.61.54,1,1,0,0,1-.62.17.71.71,0,0,1-.47-.25,1.55,1.55,0,0,1-.32-.63,3.81,3.81,0,0,1-.11-1,5.78,5.78,0,0,1,.11-1.1,5.09,5.09,0,0,1,.32-1,3.66,3.66,0,0,1,.47-.8,2.23,2.23,0,0,1,.62-.54,1,1,0,0,1,.61-.16.7.7,0,0,1,.48.24,1.53,1.53,0,0,1,.31.64,3.53,3.53,0,0,1,.11,1A4.92,4.92,0,0,1,197.11,97.16Zm-61.38,46a1.6,1.6,0,0,0-1-.32,2.79,2.79,0,0,0-1.26.4,5.19,5.19,0,0,0-1.26,1.06,7.39,7.39,0,0,0-1,1.48,8.24,8.24,0,0,0-.66,1.74,7.36,7.36,0,0,0-.24,1.86,4.57,4.57,0,0,0,.24,1.58,2.18,2.18,0,0,0,.66,1,1.51,1.51,0,0,0,1,.31,2.62,2.62,0,0,0,1.26-.41,5.05,5.05,0,0,0,1.26-1,7.43,7.43,0,0,0,1-1.48,8.24,8.24,0,0,0,.66-1.74,7.3,7.3,0,0,0,.24-1.86,4.57,4.57,0,0,0-.24-1.58A2.18,2.18,0,0,0,135.73,143.16Zm-.87,4.62a5.2,5.2,0,0,1-.31,1,3.69,3.69,0,0,1-.48.8,2.33,2.33,0,0,1-.61.53,1,1,0,0,1-.62.17.66.66,0,0,1-.47-.24,1.55,1.55,0,0,1-.32-.63,3.87,3.87,0,0,1-.11-1,5.8,5.8,0,0,1,.11-1.11,4.79,4.79,0,0,1,.32-1,3.44,3.44,0,0,1,.47-.8,2.23,2.23,0,0,1,.62-.54,1,1,0,0,1,.61-.17.73.73,0,0,1,.48.25,1.55,1.55,0,0,1,.31.63,3.58,3.58,0,0,1,.11,1A5,5,0,0,1,134.86,147.78Zm15.89-5.89a3,3,0,0,1-.29.51c-.15.24-.33.49-.53.76a9.58,9.58,0,0,1-.63.75,2.28,2.28,0,0,1-.54.47v1.77a3.08,3.08,0,0,0,.54-.4,8.28,8.28,0,0,0,.58-.6c.19-.21.36-.42.52-.63a2.86,2.86,0,0,0,.35-.55v4.29l-1.74,1V151l5-2.87v-1.72l-1.56.9v-6.37Zm2.77,22.19a1.54,1.54,0,0,0-1-.31,2.57,2.57,0,0,0-1.26.4,4.93,4.93,0,0,0-1.26,1.05,7,7,0,0,0-1,1.48,8.24,8.24,0,0,0-.66,1.74,7.42,7.42,0,0,0-.24,1.86,4.57,4.57,0,0,0,.24,1.58,2.18,2.18,0,0,0,.66,1,1.49,1.49,0,0,0,1,.31,2.52,2.52,0,0,0,1.26-.41,5.05,5.05,0,0,0,1.26-1,7.65,7.65,0,0,0,1-1.47,8.54,8.54,0,0,0,.66-1.75,7.3,7.3,0,0,0,.24-1.86,4.57,4.57,0,0,0-.24-1.58A2.18,2.18,0,0,0,153.52,164.08Zm-.87,4.62a5.2,5.2,0,0,1-.31,1,4.14,4.14,0,0,1-.48.8,2.33,2.33,0,0,1-.61.53,1,1,0,0,1-.62.17.66.66,0,0,1-.47-.24,1.55,1.55,0,0,1-.32-.63,3.87,3.87,0,0,1-.11-1,5.8,5.8,0,0,1,.11-1.11,5,5,0,0,1,.32-1,3.44,3.44,0,0,1,.47-.8,2.23,2.23,0,0,1,.62-.54,1,1,0,0,1,.61-.17.75.75,0,0,1,.48.25,1.55,1.55,0,0,1,.31.63,3.58,3.58,0,0,1,.11,1A5,5,0,0,1,152.65,168.7Zm.87-16.08a1.55,1.55,0,0,0-1-.32,2.67,2.67,0,0,0-1.26.4,5.14,5.14,0,0,0-1.26,1.05,7.26,7.26,0,0,0-1,1.48,8.67,8.67,0,0,0-.66,1.74,7.42,7.42,0,0,0-.24,1.86,4.53,4.53,0,0,0,.24,1.58,2.12,2.12,0,0,0,.66,1,1.5,1.5,0,0,0,1,.32,2.73,2.73,0,0,0,1.26-.41,5.1,5.1,0,0,0,1.26-1.05,7.35,7.35,0,0,0,1-1.47,8.67,8.67,0,0,0,.66-1.74,7.42,7.42,0,0,0,.24-1.86,4.63,4.63,0,0,0-.24-1.59A2.14,2.14,0,0,0,153.52,152.62Zm-.87,4.61a5.2,5.2,0,0,1-.31,1,4.14,4.14,0,0,1-.48.8,2,2,0,0,1-.61.53,1.06,1.06,0,0,1-.62.18.71.71,0,0,1-.47-.25,1.55,1.55,0,0,1-.32-.63,3.87,3.87,0,0,1-.11-1,5.78,5.78,0,0,1,.11-1.1,5.09,5.09,0,0,1,.32-1,3.66,3.66,0,0,1,.47-.8,2.23,2.23,0,0,1,.62-.54,1,1,0,0,1,.61-.16.7.7,0,0,1,.48.24,1.53,1.53,0,0,1,.31.64,3.5,3.5,0,0,1,.11,1A5,5,0,0,1,152.65,157.23Zm-8.06-34.16a1.56,1.56,0,0,0-1-.32,2.67,2.67,0,0,0-1.26.4,5,5,0,0,0-1.26,1.06,7,7,0,0,0-1,1.48,7.73,7.73,0,0,0-.66,1.74,7.3,7.3,0,0,0-.24,1.86,4.57,4.57,0,0,0,.24,1.58,2.1,2.1,0,0,0,.66,1,1.49,1.49,0,0,0,1,.31,2.77,2.77,0,0,0,1.26-.41,5.28,5.28,0,0,0,1.26-1,7,7,0,0,0,1-1.48,7.75,7.75,0,0,0,.67-1.74,7.42,7.42,0,0,0,.24-1.86,4.57,4.57,0,0,0-.24-1.58A2.11,2.11,0,0,0,144.59,123.07Zm-.86,4.62a4.88,4.88,0,0,1-.31,1,3.85,3.85,0,0,1-.48.8,2.35,2.35,0,0,1-.61.54,1,1,0,0,1-.62.17.71.71,0,0,1-.48-.25,1.44,1.44,0,0,1-.31-.62,3.93,3.93,0,0,1-.11-1,5.8,5.8,0,0,1,.11-1.11,4.78,4.78,0,0,1,.31-1,3.61,3.61,0,0,1,.48-.8,2.46,2.46,0,0,1,.62-.55,1.06,1.06,0,0,1,.61-.16.71.71,0,0,1,.48.25,1.48,1.48,0,0,1,.31.63,4,4,0,0,1,.11,1A5.7,5.7,0,0,1,143.73,127.69Zm9.79,2a1.54,1.54,0,0,0-1-.31,2.57,2.57,0,0,0-1.26.4,4.93,4.93,0,0,0-1.26,1,7,7,0,0,0-1,1.48,8.24,8.24,0,0,0-.66,1.74,7.42,7.42,0,0,0-.24,1.86,4.57,4.57,0,0,0,.24,1.58,2.18,2.18,0,0,0,.66,1,1.49,1.49,0,0,0,1,.31,2.52,2.52,0,0,0,1.26-.41,5.05,5.05,0,0,0,1.26-1,7.65,7.65,0,0,0,1-1.47,8.54,8.54,0,0,0,.66-1.75,7.3,7.3,0,0,0,.24-1.86,4.57,4.57,0,0,0-.24-1.58A2.18,2.18,0,0,0,153.52,129.68Zm-.87,4.62a5.2,5.2,0,0,1-.31,1,4.14,4.14,0,0,1-.48.8,2.33,2.33,0,0,1-.61.53,1,1,0,0,1-.62.17.66.66,0,0,1-.47-.24,1.55,1.55,0,0,1-.32-.63,3.87,3.87,0,0,1-.11-1,5.8,5.8,0,0,1,.11-1.11,5,5,0,0,1,.32-1,3.66,3.66,0,0,1,.47-.8,2.23,2.23,0,0,1,.62-.54,1,1,0,0,1,.61-.17.75.75,0,0,1,.48.25,1.55,1.55,0,0,1,.31.63,3.58,3.58,0,0,1,.11,1A5,5,0,0,1,152.65,134.3ZM198,149.88a1.6,1.6,0,0,0-1-.32,2.67,2.67,0,0,0-1.26.4,5.19,5.19,0,0,0-1.26,1.06,7,7,0,0,0-1,1.48,8.24,8.24,0,0,0-.66,1.74,7.3,7.3,0,0,0-.24,1.86,4.57,4.57,0,0,0,.24,1.58,2.18,2.18,0,0,0,.66,1,1.49,1.49,0,0,0,1,.31,2.62,2.62,0,0,0,1.26-.41,5.28,5.28,0,0,0,1.26-1,7.43,7.43,0,0,0,1-1.48,8.24,8.24,0,0,0,.66-1.74,7.42,7.42,0,0,0,.24-1.86,4.57,4.57,0,0,0-.24-1.58A2.18,2.18,0,0,0,198,149.88Zm-.87,4.62a4.88,4.88,0,0,1-.31,1,3.85,3.85,0,0,1-.48.8,2.2,2.2,0,0,1-.61.54,1,1,0,0,1-.62.17.67.67,0,0,1-.47-.25,1.45,1.45,0,0,1-.32-.62,3.93,3.93,0,0,1-.11-1,5.8,5.8,0,0,1,.11-1.11,4.79,4.79,0,0,1,.32-1,3.44,3.44,0,0,1,.47-.8,2.23,2.23,0,0,1,.62-.54,1,1,0,0,1,.61-.17.71.71,0,0,1,.48.25,1.48,1.48,0,0,1,.31.63,3.53,3.53,0,0,1,.11,1A5,5,0,0,1,197.11,154.5ZM198,127a1.55,1.55,0,0,0-1-.32,2.67,2.67,0,0,0-1.26.4,5,5,0,0,0-1.26,1.06,7.19,7.19,0,0,0-1,1.47,8.67,8.67,0,0,0-.66,1.74,7.42,7.42,0,0,0-.24,1.86,4.63,4.63,0,0,0,.24,1.59,2.14,2.14,0,0,0,.66,1,1.5,1.5,0,0,0,1,.32,2.73,2.73,0,0,0,1.26-.41,5.1,5.1,0,0,0,1.26-1,7.08,7.08,0,0,0,1-1.47,8.67,8.67,0,0,0,.66-1.74,7.42,7.42,0,0,0,.24-1.86,4.57,4.57,0,0,0-.24-1.58A2.12,2.12,0,0,0,198,127Zm-.87,4.61a4.78,4.78,0,0,1-.31,1,3.85,3.85,0,0,1-.48.8,2.2,2.2,0,0,1-.61.54,1,1,0,0,1-.62.17.71.71,0,0,1-.47-.25,1.55,1.55,0,0,1-.32-.63,3.81,3.81,0,0,1-.11-1,5.78,5.78,0,0,1,.11-1.1,5.09,5.09,0,0,1,.32-1,3.66,3.66,0,0,1,.47-.8,2.41,2.41,0,0,1,.62-.54,1,1,0,0,1,.61-.16.7.7,0,0,1,.48.24,1.53,1.53,0,0,1,.31.64,3.53,3.53,0,0,1,.11,1A4.92,4.92,0,0,1,197.11,131.56Zm-52.52-20a1.55,1.55,0,0,0-1-.31,2.57,2.57,0,0,0-1.26.4,4.76,4.76,0,0,0-1.26,1,7,7,0,0,0-1,1.48,7.73,7.73,0,0,0-.66,1.74,7.42,7.42,0,0,0-.24,1.86,4.57,4.57,0,0,0,.24,1.58,2.1,2.1,0,0,0,.66,1,1.56,1.56,0,0,0,1,.32,2.68,2.68,0,0,0,1.26-.42,5.05,5.05,0,0,0,1.26-1,7.19,7.19,0,0,0,1-1.47,8,8,0,0,0,.67-1.75,7.28,7.28,0,0,0,.24-1.85,4.59,4.59,0,0,0-.24-1.59A2.11,2.11,0,0,0,144.59,111.6Zm-.86,4.62a5.2,5.2,0,0,1-.31,1,4.14,4.14,0,0,1-.48.8,2.3,2.3,0,0,1-.61.53,1.14,1.14,0,0,1-.62.18.75.75,0,0,1-.48-.25,1.55,1.55,0,0,1-.31-.63,3.87,3.87,0,0,1-.11-1,5.7,5.7,0,0,1,.11-1.1,4.88,4.88,0,0,1,.31-1,4.14,4.14,0,0,1,.48-.8,2.23,2.23,0,0,1,.62-.54,1.07,1.07,0,0,1,.61-.17.75.75,0,0,1,.48.25,1.55,1.55,0,0,1,.31.63,4,4,0,0,1,.11,1A5.7,5.7,0,0,1,143.73,116.22ZM198,138.42a1.55,1.55,0,0,0-1-.32,2.57,2.57,0,0,0-1.26.4,4.93,4.93,0,0,0-1.26,1.05,7,7,0,0,0-1,1.48,8.24,8.24,0,0,0-.66,1.74,7.42,7.42,0,0,0-.24,1.86,4.57,4.57,0,0,0,.24,1.58,2.18,2.18,0,0,0,.66,1,1.5,1.5,0,0,0,1,.32,2.64,2.64,0,0,0,1.26-.42,5.05,5.05,0,0,0,1.26-1,7.65,7.65,0,0,0,1-1.47,8.54,8.54,0,0,0,.66-1.75,7.28,7.28,0,0,0,.24-1.85,4.59,4.59,0,0,0-.24-1.59A2.09,2.09,0,0,0,198,138.42Zm-.87,4.61a5.2,5.2,0,0,1-.31,1,4.14,4.14,0,0,1-.48.8,2.16,2.16,0,0,1-.61.53,1.14,1.14,0,0,1-.62.18.71.71,0,0,1-.47-.25,1.55,1.55,0,0,1-.32-.63,3.87,3.87,0,0,1-.11-1,5.7,5.7,0,0,1,.11-1.1,4.88,4.88,0,0,1,.32-1,3.66,3.66,0,0,1,.47-.8,2.23,2.23,0,0,1,.62-.54,1.09,1.09,0,0,1,.61-.17.75.75,0,0,1,.48.25,1.55,1.55,0,0,1,.31.63,3.58,3.58,0,0,1,.11,1A5,5,0,0,1,197.11,143Zm-43.59,32.52a1.55,1.55,0,0,0-1-.32,2.67,2.67,0,0,0-1.26.4,5.19,5.19,0,0,0-1.26,1.06,7.19,7.19,0,0,0-1,1.47,8.54,8.54,0,0,0-.66,1.75,7.3,7.3,0,0,0-.24,1.86,4.57,4.57,0,0,0,.24,1.58,2.18,2.18,0,0,0,.66,1,1.55,1.55,0,0,0,1,.31,2.73,2.73,0,0,0,1.26-.41,5.1,5.1,0,0,0,1.26-1,7.08,7.08,0,0,0,1-1.47,8.45,8.45,0,0,0,.66-1.74,7.42,7.42,0,0,0,.24-1.86,4.57,4.57,0,0,0-.24-1.58A2.18,2.18,0,0,0,153.52,175.55Zm-.87,4.61a4.78,4.78,0,0,1-.31,1,3.85,3.85,0,0,1-.48.8,2.2,2.2,0,0,1-.61.54,1,1,0,0,1-.62.17.71.71,0,0,1-.47-.25,1.57,1.57,0,0,1-.32-.62,3.93,3.93,0,0,1-.11-1,5.8,5.8,0,0,1,.11-1.11,4.79,4.79,0,0,1,.32-1,3.25,3.25,0,0,1,.47-.8,2.46,2.46,0,0,1,.62-.55,1.07,1.07,0,0,1,.61-.16.71.71,0,0,1,.48.25,1.43,1.43,0,0,1,.31.63,3.53,3.53,0,0,1,.11,1A4.92,4.92,0,0,1,152.65,180.16Z"/></g></g></g></svg>